G04 Layer_Color=16711935*
%FSLAX24Y24*%
%MOIN*%
G70*
G01*
G75*
%ADD11C,0.0100*%
%ADD26C,0.0680*%
%ADD42R,0.0434X0.0631*%
%ADD46R,0.0454X0.0592*%
%ADD47R,0.0631X0.0434*%
%ADD50R,0.0780X0.0780*%
%ADD51C,0.0780*%
%ADD52C,0.1530*%
%ADD53C,0.0480*%
%ADD54R,0.0671X0.0671*%
%ADD55C,0.0671*%
%ADD56C,0.0580*%
%ADD57O,0.0316X0.0828*%
%ADD58R,0.0316X0.0710*%
%ADD59R,0.0592X0.0454*%
D11*
X0Y0D02*
Y66024D01*
Y0D02*
X34961D01*
Y66024D01*
X0D02*
X34961D01*
D26*
X28601Y50227D02*
D03*
X9301D02*
D03*
D42*
X25561Y49528D02*
D03*
X24754D02*
D03*
X23632Y49606D02*
D03*
X22825D02*
D03*
X20856D02*
D03*
X21663D02*
D03*
X19813Y49685D02*
D03*
X19006D02*
D03*
D46*
X11821Y20394D02*
D03*
X11014D02*
D03*
X11033Y17874D02*
D03*
X10226D02*
D03*
X16585Y17008D02*
D03*
X15778D02*
D03*
X16900Y25945D02*
D03*
X16093D02*
D03*
X11860Y29803D02*
D03*
X11053D02*
D03*
X30659Y47323D02*
D03*
X31467D02*
D03*
X23848Y44094D02*
D03*
X24656D02*
D03*
X26014Y44134D02*
D03*
X26821D02*
D03*
X7313Y50039D02*
D03*
X8120D02*
D03*
D47*
X10709Y23730D02*
D03*
Y24537D02*
D03*
D50*
X32807Y64476D02*
D03*
D51*
Y63476D02*
D03*
X31807Y64476D02*
D03*
Y63476D02*
D03*
X30807Y64476D02*
D03*
Y63476D02*
D03*
X29807Y64476D02*
D03*
Y63476D02*
D03*
X28807Y64476D02*
D03*
Y63476D02*
D03*
X27807Y64476D02*
D03*
Y63476D02*
D03*
X26807Y64476D02*
D03*
Y63476D02*
D03*
X25807Y64476D02*
D03*
Y63476D02*
D03*
X24807Y64476D02*
D03*
Y63476D02*
D03*
X23807Y64476D02*
D03*
Y63476D02*
D03*
X22807Y64476D02*
D03*
Y63476D02*
D03*
X21807Y64476D02*
D03*
Y63476D02*
D03*
X20807Y64476D02*
D03*
Y63476D02*
D03*
X19807Y64476D02*
D03*
Y63476D02*
D03*
X18807Y64476D02*
D03*
Y63476D02*
D03*
X17807Y64476D02*
D03*
Y63476D02*
D03*
X16807Y64476D02*
D03*
Y63476D02*
D03*
X15807Y64476D02*
D03*
Y63476D02*
D03*
X14807Y64476D02*
D03*
Y63476D02*
D03*
X13807Y64476D02*
D03*
Y63476D02*
D03*
D52*
X33425Y1535D02*
D03*
X1535Y1614D02*
D03*
X1614Y64331D02*
D03*
D53*
X31551Y31767D02*
D03*
X31051D02*
D03*
X31551Y51457D02*
D03*
X31051D02*
D03*
X6851Y31767D02*
D03*
X6351D02*
D03*
Y51457D02*
D03*
X6851D02*
D03*
X21201D02*
D03*
X24201D02*
D03*
X23701D02*
D03*
X23201D02*
D03*
X22701D02*
D03*
X22201D02*
D03*
X21701D02*
D03*
X20701D02*
D03*
X20201D02*
D03*
X19701D02*
D03*
X19201D02*
D03*
X18701D02*
D03*
X18201D02*
D03*
X17701D02*
D03*
X17201D02*
D03*
X16701D02*
D03*
X16201D02*
D03*
X15701D02*
D03*
X15201D02*
D03*
X14701D02*
D03*
X14201D02*
D03*
X13701D02*
D03*
D54*
X32756Y61024D02*
D03*
D55*
Y60024D02*
D03*
X31756Y61024D02*
D03*
Y60024D02*
D03*
X30756Y61024D02*
D03*
Y60024D02*
D03*
X29756Y61024D02*
D03*
Y60024D02*
D03*
X28756Y61024D02*
D03*
Y60024D02*
D03*
X27756Y61024D02*
D03*
Y60024D02*
D03*
X26756Y61024D02*
D03*
Y60024D02*
D03*
X25756Y61024D02*
D03*
Y60024D02*
D03*
X24756Y61024D02*
D03*
Y60024D02*
D03*
X23756Y61024D02*
D03*
Y60024D02*
D03*
X22756Y61024D02*
D03*
Y60024D02*
D03*
X21756Y61024D02*
D03*
Y60024D02*
D03*
X20756Y61024D02*
D03*
Y60024D02*
D03*
X19756Y61024D02*
D03*
Y60024D02*
D03*
X18756Y61024D02*
D03*
Y60024D02*
D03*
X17756Y61024D02*
D03*
Y60024D02*
D03*
X16756Y61024D02*
D03*
Y60024D02*
D03*
X15756Y61024D02*
D03*
Y60024D02*
D03*
X14756Y61024D02*
D03*
Y60024D02*
D03*
X13756Y61024D02*
D03*
Y60024D02*
D03*
D56*
X34370Y7126D02*
D03*
X34409Y10433D02*
D03*
X34370Y13583D02*
D03*
X34409Y16772D02*
D03*
Y19882D02*
D03*
Y23110D02*
D03*
Y26417D02*
D03*
X26014Y36900D02*
D03*
Y40167D02*
D03*
X33504Y54646D02*
D03*
Y39055D02*
D03*
X2638Y53071D02*
D03*
X2205Y55315D02*
D03*
X2362Y56614D02*
D03*
X2323Y60394D02*
D03*
X3740D02*
D03*
X3780Y56299D02*
D03*
X29380Y4439D02*
D03*
X29222Y7667D02*
D03*
X29390Y11240D02*
D03*
X29360Y14085D02*
D03*
X29439Y17274D02*
D03*
X29793Y20541D02*
D03*
X29656Y23848D02*
D03*
X29577Y26801D02*
D03*
X34055Y29764D02*
D03*
X24656Y46112D02*
D03*
X28110Y44134D02*
D03*
X2677Y50472D02*
D03*
X1299Y50433D02*
D03*
X4094Y63819D02*
D03*
X7323Y50079D02*
D03*
X6693Y53425D02*
D03*
X5512Y52244D02*
D03*
X4646Y57913D02*
D03*
X6535Y56772D02*
D03*
X17504D02*
D03*
X7913Y56339D02*
D03*
X14016D02*
D03*
X28819Y22953D02*
D03*
Y27283D02*
D03*
X23848Y36309D02*
D03*
Y41250D02*
D03*
X24567Y47126D02*
D03*
X26756Y50850D02*
D03*
X28110Y23307D02*
D03*
Y28780D02*
D03*
X25197Y36063D02*
D03*
Y41102D02*
D03*
X25472Y46614D02*
D03*
X27953Y50906D02*
D03*
X30039Y49921D02*
D03*
X30079Y42087D02*
D03*
X28780Y32244D02*
D03*
X26890Y24331D02*
D03*
X29331Y50079D02*
D03*
X26142Y46024D02*
D03*
X27520Y30197D02*
D03*
Y23819D02*
D03*
D57*
X14089Y24114D02*
D03*
X14589D02*
D03*
X15089D02*
D03*
X15589D02*
D03*
X16089D02*
D03*
X16589D02*
D03*
X17089D02*
D03*
X17589D02*
D03*
X18089D02*
D03*
X18589D02*
D03*
X14089Y20374D02*
D03*
X14589D02*
D03*
X15089D02*
D03*
X15589D02*
D03*
X16089D02*
D03*
X16589D02*
D03*
X17089D02*
D03*
X17589D02*
D03*
X18089D02*
D03*
X18589D02*
D03*
D58*
X28346Y48189D02*
D03*
X27972Y47323D02*
D03*
X28720D02*
D03*
D59*
X10827Y11506D02*
D03*
Y10699D02*
D03*
X13268Y21644D02*
D03*
Y22451D02*
D03*
X18346Y11939D02*
D03*
Y11132D02*
D03*
X20197Y11939D02*
D03*
Y11132D02*
D03*
X20157Y17726D02*
D03*
Y16919D02*
D03*
X23031Y26014D02*
D03*
Y26821D02*
D03*
X22244Y18455D02*
D03*
Y19262D02*
D03*
M02*
