G04 Layer_Color=32896*
%FSLAX24Y24*%
%MOIN*%
G70*
G01*
G75*
%ADD11C,0.0100*%
%ADD38C,0.0079*%
%ADD60C,0.0236*%
%ADD61C,0.0098*%
D11*
X24307Y64976D02*
Y65976D01*
X22307D02*
X24307D01*
X22307Y64976D02*
Y65976D01*
X19528Y17165D02*
Y17765D01*
X19228D01*
X19128Y17665D01*
Y17465D01*
X19228Y17365D01*
X19528D01*
X19328D02*
X19128Y17165D01*
X18928Y17765D02*
X18528D01*
Y17665D01*
X18928Y17265D01*
Y17165D01*
X23858Y18740D02*
Y19340D01*
X23558D01*
X23458Y19240D01*
Y19040D01*
X23558Y18940D01*
X23858D01*
X23658D02*
X23458Y18740D01*
X22859Y19340D02*
X23258D01*
Y19040D01*
X23059Y19140D01*
X22959D01*
X22859Y19040D01*
Y18840D01*
X22959Y18740D01*
X23158D01*
X23258Y18840D01*
X16890Y27520D02*
Y28119D01*
X16590D01*
X16490Y28020D01*
Y27820D01*
X16590Y27720D01*
X16890D01*
X16690D02*
X16490Y27520D01*
X16290D02*
X16090D01*
X16190D01*
Y28119D01*
X16290Y28020D01*
X15790D02*
X15690Y28119D01*
X15490D01*
X15390Y28020D01*
Y27620D01*
X15490Y27520D01*
X15690D01*
X15790Y27620D01*
Y28020D01*
X19613Y50872D02*
X19713Y50972D01*
X19913D01*
X20013Y50872D01*
Y50472D01*
X19913Y50372D01*
X19713D01*
X19613Y50472D01*
X19413Y50372D02*
X19213D01*
X19313D01*
Y50972D01*
X19413Y50872D01*
X21456Y50792D02*
X21555Y50892D01*
X21755D01*
X21855Y50792D01*
Y50392D01*
X21755Y50292D01*
X21555D01*
X21456Y50392D01*
X20856Y50292D02*
X21256D01*
X20856Y50692D01*
Y50792D01*
X20956Y50892D01*
X21156D01*
X21256Y50792D01*
X23424Y50788D02*
X23524Y50888D01*
X23724D01*
X23823Y50788D01*
Y50388D01*
X23724Y50288D01*
X23524D01*
X23424Y50388D01*
X22924Y50288D02*
Y50888D01*
X23224Y50588D01*
X22824D01*
X25357Y50707D02*
X25457Y50807D01*
X25657D01*
X25757Y50707D01*
Y50307D01*
X25657Y50207D01*
X25457D01*
X25357Y50307D01*
X24757Y50807D02*
X25157D01*
Y50507D01*
X24957Y50607D01*
X24857D01*
X24757Y50507D01*
Y50307D01*
X24857Y50207D01*
X25057D01*
X25157Y50307D01*
X10596Y25632D02*
X10696Y25732D01*
X10896D01*
X10996Y25632D01*
Y25232D01*
X10896Y25132D01*
X10696D01*
X10596Y25232D01*
X10397Y25632D02*
X10297Y25732D01*
X10097D01*
X9997Y25632D01*
Y25532D01*
X10097Y25432D01*
X9997Y25332D01*
Y25232D01*
X10097Y25132D01*
X10297D01*
X10397Y25232D01*
Y25332D01*
X10297Y25432D01*
X10397Y25532D01*
Y25632D01*
X10297Y25432D02*
X10097D01*
X28655Y49118D02*
Y49517D01*
X28755Y49617D01*
X28954D01*
X29054Y49517D01*
Y49118D01*
X28954Y49018D01*
X28755D01*
X28854Y49218D02*
X28655Y49018D01*
X28755D02*
X28655Y49118D01*
X28455Y49018D02*
X28255D01*
X28355D01*
Y49617D01*
X28455Y49517D01*
X8320Y50722D02*
Y51322D01*
X8020D01*
X7920Y51222D01*
Y51022D01*
X8020Y50922D01*
X8320D01*
X8120D02*
X7920Y50722D01*
X7720D02*
X7520D01*
X7620D01*
Y51322D01*
X7720Y51222D01*
X27018Y44814D02*
Y45414D01*
X26718D01*
X26618Y45314D01*
Y45114D01*
X26718Y45014D01*
X27018D01*
X26818D02*
X26618Y44814D01*
X26018D02*
X26418D01*
X26018Y45214D01*
Y45314D01*
X26118Y45414D01*
X26318D01*
X26418Y45314D01*
X24846Y44779D02*
Y45379D01*
X24546D01*
X24446Y45279D01*
Y45079D01*
X24546Y44979D01*
X24846D01*
X24646D02*
X24446Y44779D01*
X24246Y45279D02*
X24146Y45379D01*
X23946D01*
X23846Y45279D01*
Y45179D01*
X23946Y45079D01*
X24046D01*
X23946D01*
X23846Y44979D01*
Y44879D01*
X23946Y44779D01*
X24146D01*
X24246Y44879D01*
X31665Y48002D02*
Y48602D01*
X31365D01*
X31265Y48502D01*
Y48302D01*
X31365Y48202D01*
X31665D01*
X31465D02*
X31265Y48002D01*
X30766D02*
Y48602D01*
X31066Y48302D01*
X30666D01*
X23315Y27421D02*
Y28021D01*
X23015D01*
X22915Y27921D01*
Y27721D01*
X23015Y27621D01*
X23315D01*
X23115D02*
X22915Y27421D01*
X22316Y28021D02*
X22516Y27921D01*
X22716Y27721D01*
Y27521D01*
X22616Y27421D01*
X22416D01*
X22316Y27521D01*
Y27621D01*
X22416Y27721D01*
X22716D01*
X12057Y30484D02*
Y31083D01*
X11757D01*
X11657Y30983D01*
Y30783D01*
X11757Y30683D01*
X12057D01*
X11857D02*
X11657Y30484D01*
X11457Y30983D02*
X11357Y31083D01*
X11158D01*
X11058Y30983D01*
Y30883D01*
X11158Y30783D01*
X11058Y30683D01*
Y30584D01*
X11158Y30484D01*
X11357D01*
X11457Y30584D01*
Y30683D01*
X11357Y30783D01*
X11457Y30883D01*
Y30983D01*
X11357Y30783D02*
X11158D01*
X20485Y12532D02*
Y13132D01*
X20185D01*
X20085Y13032D01*
Y12832D01*
X20185Y12732D01*
X20485D01*
X20285D02*
X20085Y12532D01*
X19886Y12632D02*
X19786Y12532D01*
X19586D01*
X19486Y12632D01*
Y13032D01*
X19586Y13132D01*
X19786D01*
X19886Y13032D01*
Y12932D01*
X19786Y12832D01*
X19486D01*
X18625Y12532D02*
Y13132D01*
X18325D01*
X18226Y13032D01*
Y12832D01*
X18325Y12732D01*
X18625D01*
X18425D02*
X18226Y12532D01*
X18026D02*
X17826D01*
X17926D01*
Y13132D01*
X18026Y13032D01*
X17526Y12532D02*
X17326D01*
X17426D01*
Y13132D01*
X17526Y13032D01*
X16785Y17690D02*
Y18290D01*
X16485D01*
X16385Y18190D01*
Y17990D01*
X16485Y17890D01*
X16785D01*
X16585D02*
X16385Y17690D01*
X16185D02*
X15985D01*
X16085D01*
Y18290D01*
X16185Y18190D01*
X15285Y17690D02*
X15685D01*
X15285Y18090D01*
Y18190D01*
X15385Y18290D01*
X15585D01*
X15685Y18190D01*
X13554Y23045D02*
Y23645D01*
X13254D01*
X13154Y23545D01*
Y23345D01*
X13254Y23245D01*
X13554D01*
X13354D02*
X13154Y23045D01*
X12954D02*
X12754D01*
X12854D01*
Y23645D01*
X12954Y23545D01*
X12454D02*
X12355Y23645D01*
X12155D01*
X12055Y23545D01*
Y23445D01*
X12155Y23345D01*
X12255D01*
X12155D01*
X12055Y23245D01*
Y23145D01*
X12155Y23045D01*
X12355D01*
X12454Y23145D01*
X11115Y12102D02*
Y12702D01*
X10815D01*
X10716Y12602D01*
Y12402D01*
X10815Y12302D01*
X11115D01*
X10915D02*
X10716Y12102D01*
X10516D02*
X10316D01*
X10416D01*
Y12702D01*
X10516Y12602D01*
X9716Y12102D02*
Y12702D01*
X10016Y12402D01*
X9616D01*
X11230Y18560D02*
Y19160D01*
X10930D01*
X10830Y19060D01*
Y18860D01*
X10930Y18760D01*
X11230D01*
X11030D02*
X10830Y18560D01*
X10630D02*
X10430D01*
X10530D01*
Y19160D01*
X10630Y19060D01*
X9730Y19160D02*
X10130D01*
Y18860D01*
X9930Y18960D01*
X9830D01*
X9730Y18860D01*
Y18660D01*
X9830Y18560D01*
X10030D01*
X10130Y18660D01*
X12020Y21082D02*
Y21682D01*
X11720D01*
X11620Y21582D01*
Y21382D01*
X11720Y21282D01*
X12020D01*
X11820D02*
X11620Y21082D01*
X11420D02*
X11220D01*
X11320D01*
Y21682D01*
X11420Y21582D01*
X10520Y21682D02*
X10720Y21582D01*
X10920Y21382D01*
Y21182D01*
X10820Y21082D01*
X10620D01*
X10520Y21182D01*
Y21282D01*
X10620Y21382D01*
X10920D01*
X18924Y25487D02*
Y24988D01*
X18824Y24888D01*
X18624D01*
X18524Y24988D01*
Y25487D01*
X17924Y24888D02*
X18324D01*
X17924Y25288D01*
Y25387D01*
X18024Y25487D01*
X18224D01*
X18324Y25387D01*
X0Y0D02*
Y66024D01*
Y0D02*
X34961D01*
Y66024D01*
X0D02*
X34961D01*
D38*
X13780Y20906D02*
Y23583D01*
X18898Y20906D02*
Y23583D01*
X13780D02*
X18898D01*
X13780Y20906D02*
X18898D01*
X27756Y48032D02*
X28071D01*
X27756Y47874D02*
Y48032D01*
X28622D02*
X28937D01*
Y47874D02*
Y48032D01*
X11358Y20610D02*
X11476D01*
X11358Y20177D02*
X11476D01*
X10571Y18091D02*
X10689D01*
X10571Y17657D02*
X10689D01*
X10610Y11043D02*
Y11161D01*
X11043Y11043D02*
Y11161D01*
X13484Y21988D02*
Y22106D01*
X13051Y21988D02*
Y22106D01*
X16122Y17224D02*
X16240D01*
X16122Y16791D02*
X16240D01*
X18130Y11476D02*
Y11594D01*
X18563Y11476D02*
Y11594D01*
X16437Y26161D02*
X16555D01*
X16437Y25728D02*
X16555D01*
X19980Y11476D02*
Y11594D01*
X20413Y11476D02*
Y11594D01*
X11398Y30020D02*
X11516D01*
X11398Y29587D02*
X11516D01*
X19941Y17264D02*
Y17382D01*
X20374Y17264D02*
Y17382D01*
X23248Y26358D02*
Y26476D01*
X22815Y26358D02*
Y26476D01*
X22461Y18799D02*
Y18917D01*
X22028Y18799D02*
Y18917D01*
X31004Y47106D02*
X31122D01*
X31004Y47539D02*
X31122D01*
X24193Y43878D02*
X24311D01*
X24193Y44311D02*
X24311D01*
X26358Y43917D02*
X26476D01*
X26358Y44350D02*
X26476D01*
X7657Y49823D02*
X7776D01*
X7657Y50256D02*
X7776D01*
X10945Y24055D02*
Y24213D01*
X10472Y24055D02*
Y24213D01*
X25079Y49764D02*
X25236D01*
X25079Y49291D02*
X25236D01*
X23150Y49843D02*
X23307D01*
X23150Y49370D02*
X23307D01*
X21181Y49370D02*
X21339D01*
X21181Y49843D02*
X21339D01*
X19331Y49921D02*
X19488D01*
X19331Y49449D02*
X19488D01*
D60*
X18622Y21299D02*
G03*
X18622Y21299I-118J0D01*
G01*
D61*
X18972Y20374D02*
G03*
X18972Y20374I-49J0D01*
G01*
X29104Y47362D02*
G03*
X29104Y47362I-49J0D01*
G01*
M02*
