G04 Layer_Physical_Order=2*
G04 Layer_Color=16711680*
%FSLAX24Y24*%
%MOIN*%
G70*
G01*
G75*
%ADD11C,0.0100*%
%ADD13R,0.0354X0.0551*%
%ADD19R,0.0374X0.0512*%
%ADD20R,0.0551X0.0354*%
%ADD23R,0.0700X0.0700*%
%ADD24C,0.0700*%
%ADD25C,0.1450*%
%ADD26C,0.0680*%
%ADD27C,0.0400*%
%ADD28R,0.0591X0.0591*%
%ADD29C,0.0591*%
%ADD30C,0.0500*%
%ADD31O,0.0236X0.0748*%
%ADD32R,0.0236X0.0630*%
%ADD33R,0.0512X0.0374*%
G36*
X34567Y2982D02*
X34467Y2944D01*
X34302Y3054D01*
X34096Y3156D01*
X33879Y3229D01*
X33654Y3274D01*
X33425Y3289D01*
X33196Y3274D01*
X32971Y3229D01*
X32754Y3156D01*
X32548Y3054D01*
X32358Y2927D01*
X32185Y2776D01*
X32034Y2603D01*
X31906Y2412D01*
X31805Y2207D01*
X31731Y1989D01*
X31686Y1764D01*
X31671Y1535D01*
X31686Y1307D01*
X31731Y1082D01*
X31805Y864D01*
X31906Y659D01*
X32017Y494D01*
X31978Y394D01*
X2914D01*
X2873Y485D01*
X2927Y547D01*
X3054Y737D01*
X3156Y943D01*
X3229Y1160D01*
X3274Y1385D01*
X3289Y1614D01*
X3274Y1843D01*
X3229Y2068D01*
X3156Y2285D01*
X3054Y2491D01*
X2927Y2682D01*
X2776Y2854D01*
X2603Y3006D01*
X2412Y3133D01*
X2207Y3234D01*
X1989Y3308D01*
X1764Y3353D01*
X1535Y3368D01*
X1307Y3353D01*
X1082Y3308D01*
X864Y3234D01*
X659Y3133D01*
X494Y3023D01*
X394Y3061D01*
Y54488D01*
X1693D01*
Y57047D01*
X1732Y57080D01*
X3307D01*
X3311Y57080D01*
X3360Y56988D01*
X2458Y56086D01*
X2402Y56003D01*
X2383Y55906D01*
Y53442D01*
X2317Y53392D01*
X2245Y53298D01*
X2199Y53188D01*
X2184Y53071D01*
X2199Y52953D01*
X2245Y52844D01*
X2317Y52750D01*
X2411Y52678D01*
X2520Y52632D01*
X2638Y52617D01*
X2755Y52632D01*
X2865Y52678D01*
X2959Y52750D01*
X3031Y52844D01*
X3076Y52953D01*
X3092Y53071D01*
X3076Y53188D01*
X3031Y53298D01*
X2959Y53392D01*
X2893Y53442D01*
Y55800D01*
X4563Y57470D01*
X4646Y57460D01*
X4763Y57475D01*
X4873Y57520D01*
X4967Y57592D01*
X5039Y57686D01*
X5084Y57796D01*
X5100Y57913D01*
X5084Y58031D01*
X5039Y58140D01*
X4967Y58234D01*
X4873Y58306D01*
X4763Y58352D01*
X4646Y58367D01*
X4528Y58352D01*
X4419Y58306D01*
X4325Y58234D01*
X4253Y58140D01*
X4207Y58031D01*
X4192Y57913D01*
X4203Y57831D01*
X3602Y57231D01*
X3510Y57280D01*
X3511Y57283D01*
Y59488D01*
X3495Y59566D01*
X3451Y59632D01*
X3385Y59677D01*
X3307Y59692D01*
X1732D01*
X1693Y59724D01*
Y59764D01*
X394D01*
Y62952D01*
X485Y62994D01*
X547Y62939D01*
X737Y62812D01*
X943Y62710D01*
X1160Y62637D01*
X1385Y62592D01*
X1614Y62577D01*
X1843Y62592D01*
X2068Y62637D01*
X2285Y62710D01*
X2491Y62812D01*
X2682Y62939D01*
X2854Y63091D01*
X3006Y63263D01*
X3133Y63454D01*
X3234Y63660D01*
X3308Y63877D01*
X3353Y64102D01*
X3368Y64331D01*
X3353Y64560D01*
X3308Y64785D01*
X3234Y65002D01*
X3133Y65208D01*
X3006Y65398D01*
X2890Y65530D01*
X2935Y65630D01*
X34567D01*
Y2982D01*
D02*
G37*
%LPC*%
G36*
X31807Y65031D02*
X31664Y65012D01*
X31530Y64957D01*
X31415Y64869D01*
X31369Y64808D01*
X31246D01*
X31199Y64869D01*
X31084Y64957D01*
X30951Y65012D01*
X30807Y65031D01*
X30664Y65012D01*
X30530Y64957D01*
X30415Y64869D01*
X30369Y64808D01*
X30246D01*
X30199Y64869D01*
X30084Y64957D01*
X29951Y65012D01*
X29807Y65031D01*
X29664Y65012D01*
X29530Y64957D01*
X29415Y64869D01*
X29369Y64808D01*
X29246D01*
X29199Y64869D01*
X29084Y64957D01*
X28951Y65012D01*
X28807Y65031D01*
X28664Y65012D01*
X28530Y64957D01*
X28415Y64869D01*
X28369Y64808D01*
X28246D01*
X28199Y64869D01*
X28084Y64957D01*
X27951Y65012D01*
X27807Y65031D01*
X27664Y65012D01*
X27530Y64957D01*
X27415Y64869D01*
X27369Y64808D01*
X27246D01*
X27199Y64869D01*
X27084Y64957D01*
X26951Y65012D01*
X26807Y65031D01*
X26664Y65012D01*
X26530Y64957D01*
X26415Y64869D01*
X26369Y64808D01*
X26246D01*
X26199Y64869D01*
X26084Y64957D01*
X25951Y65012D01*
X25807Y65031D01*
X25664Y65012D01*
X25530Y64957D01*
X25415Y64869D01*
X25369Y64808D01*
X25246D01*
X25199Y64869D01*
X25084Y64957D01*
X24951Y65012D01*
X24807Y65031D01*
X24664Y65012D01*
X24530Y64957D01*
X24415Y64869D01*
X24369Y64808D01*
X24246D01*
X24199Y64869D01*
X24084Y64957D01*
X23951Y65012D01*
X23807Y65031D01*
X23664Y65012D01*
X23530Y64957D01*
X23415Y64869D01*
X23369Y64808D01*
X23246D01*
X23199Y64869D01*
X23084Y64957D01*
X22951Y65012D01*
X22807Y65031D01*
X22664Y65012D01*
X22530Y64957D01*
X22415Y64869D01*
X22369Y64808D01*
X22246D01*
X22199Y64869D01*
X22084Y64957D01*
X21951Y65012D01*
X21807Y65031D01*
X21664Y65012D01*
X21530Y64957D01*
X21415Y64869D01*
X21369Y64808D01*
X21246D01*
X21199Y64869D01*
X21084Y64957D01*
X20951Y65012D01*
X20807Y65031D01*
X20664Y65012D01*
X20530Y64957D01*
X20415Y64869D01*
X20369Y64808D01*
X20246D01*
X20199Y64869D01*
X20084Y64957D01*
X19951Y65012D01*
X19807Y65031D01*
X19664Y65012D01*
X19530Y64957D01*
X19415Y64869D01*
X19369Y64808D01*
X19246D01*
X19199Y64869D01*
X19084Y64957D01*
X18951Y65012D01*
X18807Y65031D01*
X18664Y65012D01*
X18530Y64957D01*
X18415Y64869D01*
X18369Y64808D01*
X18246D01*
X18199Y64869D01*
X18084Y64957D01*
X17951Y65012D01*
X17807Y65031D01*
X17664Y65012D01*
X17530Y64957D01*
X17415Y64869D01*
X17369Y64808D01*
X17246D01*
X17199Y64869D01*
X17084Y64957D01*
X16951Y65012D01*
X16807Y65031D01*
X16664Y65012D01*
X16530Y64957D01*
X16415Y64869D01*
X16369Y64808D01*
X16246D01*
X16199Y64869D01*
X16084Y64957D01*
X15951Y65012D01*
X15807Y65031D01*
X15664Y65012D01*
X15530Y64957D01*
X15415Y64869D01*
X15369Y64808D01*
X15246D01*
X15199Y64869D01*
X15084Y64957D01*
X14951Y65012D01*
X14807Y65031D01*
X14664Y65012D01*
X14530Y64957D01*
X14415Y64869D01*
X14369Y64808D01*
X14246D01*
X14199Y64869D01*
X14084Y64957D01*
X13951Y65012D01*
X13807Y65031D01*
X13664Y65012D01*
X13530Y64957D01*
X13415Y64869D01*
X13327Y64754D01*
X13271Y64620D01*
X13252Y64476D01*
X13271Y64333D01*
X13327Y64199D01*
X13415Y64084D01*
X13475Y64038D01*
Y63915D01*
X13415Y63869D01*
X13327Y63754D01*
X13271Y63620D01*
X13252Y63476D01*
X13271Y63333D01*
X13327Y63199D01*
X13415Y63084D01*
X13530Y62996D01*
X13552Y62987D01*
Y61475D01*
X13506Y61456D01*
X13403Y61377D01*
X13323Y61273D01*
X13273Y61153D01*
X13256Y61024D01*
X13273Y60894D01*
X13323Y60774D01*
X13403Y60670D01*
X13506Y60591D01*
X13538Y60578D01*
Y60469D01*
X13506Y60456D01*
X13403Y60377D01*
X13323Y60273D01*
X13273Y60153D01*
X13256Y60024D01*
X13273Y59894D01*
X13323Y59774D01*
X13403Y59670D01*
X13506Y59591D01*
X13627Y59541D01*
X13756Y59524D01*
X13885Y59541D01*
X14006Y59591D01*
X14109Y59670D01*
X14189Y59774D01*
X14202Y59806D01*
X14310D01*
X14323Y59774D01*
X14403Y59670D01*
X14506Y59591D01*
X14627Y59541D01*
X14756Y59524D01*
X14885Y59541D01*
X15006Y59591D01*
X15109Y59670D01*
X15189Y59774D01*
X15202Y59806D01*
X15310D01*
X15323Y59774D01*
X15403Y59670D01*
X15506Y59591D01*
X15627Y59541D01*
X15756Y59524D01*
X15885Y59541D01*
X16006Y59591D01*
X16109Y59670D01*
X16189Y59774D01*
X16202Y59806D01*
X16310D01*
X16323Y59774D01*
X16403Y59670D01*
X16506Y59591D01*
X16627Y59541D01*
X16756Y59524D01*
X16885Y59541D01*
X17006Y59591D01*
X17109Y59670D01*
X17189Y59774D01*
X17202Y59806D01*
X17310D01*
X17323Y59774D01*
X17403Y59670D01*
X17506Y59591D01*
X17627Y59541D01*
X17756Y59524D01*
X17885Y59541D01*
X18006Y59591D01*
X18109Y59670D01*
X18189Y59774D01*
X18238Y59894D01*
X18255Y60024D01*
X18238Y60153D01*
X18189Y60273D01*
X18109Y60377D01*
X18006Y60456D01*
X17974Y60469D01*
Y60578D01*
X18006Y60591D01*
X18109Y60670D01*
X18189Y60774D01*
X18202Y60806D01*
X18310D01*
X18323Y60774D01*
X18403Y60670D01*
X18506Y60591D01*
X18627Y60541D01*
X18756Y60524D01*
X18885Y60541D01*
X19006Y60591D01*
X19109Y60670D01*
X19189Y60774D01*
X19202Y60806D01*
X19310D01*
X19323Y60774D01*
X19403Y60670D01*
X19506Y60591D01*
X19538Y60578D01*
Y60469D01*
X19506Y60456D01*
X19403Y60377D01*
X19323Y60273D01*
X19273Y60153D01*
X19256Y60024D01*
X19273Y59894D01*
X19323Y59774D01*
X19403Y59670D01*
X19506Y59591D01*
X19627Y59541D01*
X19756Y59524D01*
X19885Y59541D01*
X20006Y59591D01*
X20109Y59670D01*
X20189Y59774D01*
X20202Y59806D01*
X20310D01*
X20323Y59774D01*
X20403Y59670D01*
X20506Y59591D01*
X20627Y59541D01*
X20755Y59524D01*
X20758Y59520D01*
X20801Y59429D01*
X18046Y56674D01*
X17951Y56721D01*
X17958Y56772D01*
X17942Y56889D01*
X17897Y56999D01*
X17825Y57093D01*
X17731Y57165D01*
X17621Y57210D01*
X17504Y57226D01*
X17386Y57210D01*
X17277Y57165D01*
X17183Y57093D01*
X17132Y57027D01*
X6907D01*
X6856Y57093D01*
X6762Y57165D01*
X6653Y57210D01*
X6535Y57226D01*
X6418Y57210D01*
X6308Y57165D01*
X6214Y57093D01*
X6142Y56999D01*
X6097Y56889D01*
X6082Y56772D01*
X6097Y56654D01*
X6142Y56545D01*
X6214Y56451D01*
X6308Y56379D01*
X6418Y56333D01*
X6535Y56318D01*
X6653Y56333D01*
X6762Y56379D01*
X6856Y56451D01*
X6907Y56517D01*
X7403D01*
X7470Y56417D01*
X7459Y56339D01*
X7475Y56221D01*
X7520Y56112D01*
X7592Y56018D01*
X7686Y55946D01*
X7796Y55900D01*
X7913Y55885D01*
X8031Y55900D01*
X8140Y55946D01*
X8234Y56018D01*
X8285Y56084D01*
X13644D01*
X13695Y56018D01*
X13789Y55946D01*
X13898Y55900D01*
X14016Y55885D01*
X14133Y55900D01*
X14243Y55946D01*
X14337Y56018D01*
X14409Y56112D01*
X14454Y56221D01*
X14470Y56339D01*
X14459Y56417D01*
X14526Y56517D01*
X17132D01*
X17183Y56451D01*
X17277Y56379D01*
X17386Y56333D01*
X17504Y56318D01*
X17555Y56324D01*
X17602Y56230D01*
X13521Y52149D01*
X13465Y52066D01*
X13446Y51968D01*
Y51765D01*
X13415Y51742D01*
X13351Y51658D01*
X13311Y51561D01*
X13297Y51457D01*
X13311Y51352D01*
X13351Y51255D01*
X13415Y51171D01*
X13499Y51107D01*
X13596Y51067D01*
X13701Y51053D01*
X13805Y51067D01*
X13903Y51107D01*
X13951Y51144D01*
X13999Y51107D01*
X14096Y51067D01*
X14201Y51053D01*
X14305Y51067D01*
X14403Y51107D01*
X14451Y51144D01*
X14499Y51107D01*
X14596Y51067D01*
X14701Y51053D01*
X14805Y51067D01*
X14903Y51107D01*
X14986Y51171D01*
X15021Y51217D01*
X15049Y51195D01*
X15122Y51164D01*
X15151Y51161D01*
Y51457D01*
X15251D01*
Y51161D01*
X15279Y51164D01*
X15352Y51195D01*
X15381Y51217D01*
X15451Y51234D01*
X15521Y51217D01*
X15549Y51195D01*
X15622Y51164D01*
X15651Y51161D01*
Y51457D01*
X15751D01*
Y51161D01*
X15779Y51164D01*
X15852Y51195D01*
X15881Y51217D01*
X15951Y51234D01*
X16021Y51217D01*
X16049Y51195D01*
X16122Y51164D01*
X16151Y51161D01*
Y51457D01*
Y51753D01*
X16122Y51749D01*
X16049Y51719D01*
X16021Y51697D01*
X16005Y51693D01*
X15951Y51726D01*
X15937Y51845D01*
X23633Y59540D01*
X23756Y59524D01*
X23885Y59541D01*
X24006Y59591D01*
X24109Y59670D01*
X24189Y59774D01*
X24202Y59806D01*
X24310D01*
X24323Y59774D01*
X24403Y59670D01*
X24501Y59595D01*
Y57117D01*
X19239Y51855D01*
X19201Y51860D01*
X19096Y51846D01*
X18999Y51806D01*
X18915Y51742D01*
X18881Y51697D01*
X18852Y51719D01*
X18779Y51749D01*
X18751Y51753D01*
Y51457D01*
Y51161D01*
X18779Y51164D01*
X18852Y51195D01*
X18881Y51217D01*
X18915Y51171D01*
X18999Y51107D01*
X19096Y51067D01*
X19201Y51053D01*
X19305Y51067D01*
X19403Y51107D01*
X19451Y51144D01*
X19499Y51107D01*
X19596Y51067D01*
X19701Y51053D01*
X19805Y51067D01*
X19846Y51084D01*
X19946Y51020D01*
Y50178D01*
X19928Y50161D01*
X19436D01*
Y49209D01*
X20190D01*
Y49702D01*
X20379Y49891D01*
X20387Y49890D01*
X20479Y49859D01*
Y49131D01*
X21233D01*
Y49131D01*
X21286D01*
Y49131D01*
X22041D01*
Y49899D01*
X22133Y49938D01*
X22448Y49623D01*
Y49131D01*
X23202D01*
X23202Y49131D01*
X23255D01*
Y49131D01*
X23302Y49131D01*
X24009D01*
Y49781D01*
X24101Y49820D01*
X24377Y49544D01*
Y49052D01*
X25131D01*
Y50003D01*
X24639D01*
X23560Y51082D01*
X23617Y51167D01*
X23622Y51164D01*
X23651Y51161D01*
Y51457D01*
Y51753D01*
X23622Y51749D01*
X23549Y51719D01*
X23521Y51697D01*
X23486Y51742D01*
X23403Y51806D01*
X23305Y51846D01*
X23201Y51860D01*
X23096Y51846D01*
X22999Y51806D01*
X22951Y51769D01*
X22903Y51806D01*
X22805Y51846D01*
X22701Y51860D01*
X22596Y51846D01*
X22499Y51806D01*
X22451Y51769D01*
X22403Y51806D01*
X22305Y51846D01*
X22201Y51860D01*
X22096Y51846D01*
X21999Y51806D01*
X21951Y51769D01*
X21903Y51806D01*
X21805Y51846D01*
X21701Y51860D01*
X21596Y51846D01*
X21499Y51806D01*
X21451Y51769D01*
X21403Y51806D01*
X21305Y51846D01*
X21201Y51860D01*
X21096Y51846D01*
X20999Y51806D01*
X20916Y51742D01*
X20881Y51697D01*
X20852Y51719D01*
X20779Y51749D01*
X20751Y51753D01*
Y51457D01*
X20651D01*
Y51753D01*
X20622Y51749D01*
X20552Y51720D01*
X20535Y51730D01*
X20485Y51766D01*
X20477Y51873D01*
X25936Y57332D01*
X25991Y57414D01*
X26011Y57512D01*
Y59595D01*
X26109Y59670D01*
X26189Y59774D01*
X26202Y59806D01*
X26310D01*
X26323Y59774D01*
X26403Y59670D01*
X26501Y59595D01*
Y51222D01*
X26435Y51171D01*
X26363Y51077D01*
X26317Y50968D01*
X26302Y50850D01*
X26317Y50733D01*
X26363Y50623D01*
X26435Y50529D01*
X26529Y50457D01*
X26638Y50412D01*
X26756Y50397D01*
X26873Y50412D01*
X26983Y50457D01*
X27077Y50529D01*
X27149Y50623D01*
X27194Y50733D01*
X27210Y50850D01*
X27194Y50968D01*
X27149Y51077D01*
X27077Y51171D01*
X27011Y51222D01*
Y59595D01*
X27109Y59670D01*
X27189Y59774D01*
X27238Y59894D01*
X27255Y60024D01*
X27238Y60153D01*
X27189Y60273D01*
X27109Y60377D01*
X27006Y60456D01*
X26974Y60469D01*
Y60578D01*
X27006Y60591D01*
X27109Y60670D01*
X27189Y60774D01*
X27202Y60806D01*
X27310D01*
X27323Y60774D01*
X27403Y60670D01*
X27506Y60591D01*
X27627Y60541D01*
X27756Y60524D01*
X27885Y60541D01*
X28006Y60591D01*
X28109Y60670D01*
X28189Y60774D01*
X28202Y60806D01*
X28310D01*
X28323Y60774D01*
X28403Y60670D01*
X28506Y60591D01*
X28538Y60578D01*
Y60469D01*
X28506Y60456D01*
X28403Y60377D01*
X28323Y60273D01*
X28273Y60153D01*
X28256Y60024D01*
X28273Y59894D01*
X28323Y59774D01*
X28403Y59670D01*
X28501Y59595D01*
Y51814D01*
X28035Y51349D01*
X27953Y51359D01*
X27835Y51344D01*
X27726Y51299D01*
X27632Y51226D01*
X27560Y51132D01*
X27514Y51023D01*
X27499Y50906D01*
X27514Y50788D01*
X27560Y50679D01*
X27632Y50585D01*
X27726Y50512D01*
X27835Y50467D01*
X27953Y50452D01*
X28004Y50458D01*
X28075Y50368D01*
X28056Y50227D01*
X28075Y50086D01*
X28101Y50021D01*
X28092Y49972D01*
Y48704D01*
X28028D01*
Y47738D01*
X28022D01*
Y47373D01*
X28191D01*
Y47674D01*
X28402D01*
Y46808D01*
X29039D01*
Y47068D01*
X30272D01*
Y46867D01*
X31046D01*
Y46867D01*
X31080D01*
Y46867D01*
X31854D01*
Y47779D01*
X31721D01*
Y50802D01*
X32060Y51140D01*
X32115Y51223D01*
X32134Y51321D01*
Y51785D01*
X32115Y51883D01*
X32060Y51966D01*
X31721Y52304D01*
Y59494D01*
X31756Y59524D01*
X31885Y59541D01*
X32006Y59591D01*
X32109Y59670D01*
X32189Y59774D01*
X32202Y59806D01*
X32310D01*
X32323Y59774D01*
X32403Y59670D01*
X32506Y59591D01*
X32627Y59541D01*
X32756Y59524D01*
X32885Y59541D01*
X33006Y59591D01*
X33109Y59670D01*
X33189Y59774D01*
X33238Y59894D01*
X33255Y60024D01*
X33238Y60153D01*
X33189Y60273D01*
X33109Y60377D01*
X33042Y60428D01*
X33076Y60528D01*
X33251D01*
Y61519D01*
X33062D01*
Y62987D01*
X33084Y62996D01*
X33199Y63084D01*
X33288Y63199D01*
X33343Y63333D01*
X33362Y63476D01*
X33343Y63620D01*
X33288Y63754D01*
X33232Y63826D01*
X33281Y63926D01*
X33357D01*
Y65026D01*
X32257D01*
Y64950D01*
X32157Y64901D01*
X32084Y64957D01*
X31951Y65012D01*
X31807Y65031D01*
D02*
G37*
G36*
X18806Y60416D02*
Y60074D01*
X19148D01*
X19141Y60127D01*
X19101Y60223D01*
X19038Y60306D01*
X18955Y60369D01*
X18859Y60409D01*
X18806Y60416D01*
D02*
G37*
G36*
X27806D02*
Y60074D01*
X28148D01*
X28141Y60127D01*
X28101Y60223D01*
X28038Y60306D01*
X27955Y60369D01*
X27859Y60409D01*
X27806Y60416D01*
D02*
G37*
G36*
X18706Y60416D02*
X18653Y60409D01*
X18557Y60369D01*
X18474Y60306D01*
X18411Y60223D01*
X18371Y60127D01*
X18364Y60074D01*
X18706D01*
Y60416D01*
D02*
G37*
G36*
X27706D02*
X27653Y60409D01*
X27557Y60369D01*
X27474Y60306D01*
X27411Y60223D01*
X27371Y60127D01*
X27364Y60074D01*
X27706D01*
Y60416D01*
D02*
G37*
G36*
X28148Y59974D02*
X27806D01*
Y59632D01*
X27859Y59639D01*
X27955Y59678D01*
X28038Y59742D01*
X28101Y59824D01*
X28141Y59920D01*
X28148Y59974D01*
D02*
G37*
G36*
X19148D02*
X18806D01*
Y59632D01*
X18859Y59639D01*
X18955Y59678D01*
X19038Y59742D01*
X19101Y59824D01*
X19141Y59920D01*
X19148Y59974D01*
D02*
G37*
G36*
X27706D02*
X27364D01*
X27371Y59920D01*
X27411Y59824D01*
X27474Y59742D01*
X27557Y59678D01*
X27653Y59639D01*
X27706Y59632D01*
Y59974D01*
D02*
G37*
G36*
X18706D02*
X18364D01*
X18371Y59920D01*
X18411Y59824D01*
X18474Y59742D01*
X18557Y59678D01*
X18653Y59639D01*
X18706Y59632D01*
Y59974D01*
D02*
G37*
G36*
X6693Y53879D02*
X6575Y53864D01*
X6466Y53818D01*
X6372Y53746D01*
X6300Y53652D01*
X6255Y53543D01*
X6239Y53425D01*
X6250Y53343D01*
X5594Y52687D01*
X5512Y52698D01*
X5394Y52683D01*
X5285Y52637D01*
X5191Y52565D01*
X5119Y52471D01*
X5073Y52362D01*
X5058Y52244D01*
X5073Y52127D01*
X5119Y52017D01*
X5191Y51923D01*
X5285Y51851D01*
X5394Y51806D01*
X5512Y51790D01*
X5629Y51806D01*
X5739Y51851D01*
X5833Y51923D01*
X5905Y52017D01*
X5950Y52127D01*
X5966Y52244D01*
X5955Y52327D01*
X6610Y52982D01*
X6693Y52971D01*
X6810Y52987D01*
X6920Y53032D01*
X7014Y53104D01*
X7086Y53198D01*
X7131Y53308D01*
X7147Y53425D01*
X7131Y53543D01*
X7086Y53652D01*
X7014Y53746D01*
X6920Y53818D01*
X6810Y53864D01*
X6693Y53879D01*
D02*
G37*
G36*
X6851Y51860D02*
X6746Y51846D01*
X6649Y51806D01*
X6601Y51769D01*
X6553Y51806D01*
X6455Y51846D01*
X6351Y51860D01*
X6246Y51846D01*
X6149Y51806D01*
X6065Y51742D01*
X6001Y51658D01*
X5961Y51561D01*
X5947Y51457D01*
X5961Y51352D01*
X6001Y51255D01*
X6065Y51171D01*
X6149Y51107D01*
X6246Y51067D01*
X6351Y51053D01*
X6455Y51067D01*
X6553Y51107D01*
X6601Y51144D01*
X6649Y51107D01*
X6746Y51067D01*
X6851Y51053D01*
X6955Y51067D01*
X7053Y51107D01*
X7136Y51171D01*
X7200Y51255D01*
X7240Y51352D01*
X7254Y51457D01*
X7240Y51561D01*
X7200Y51658D01*
X7136Y51742D01*
X7053Y51806D01*
X6955Y51846D01*
X6851Y51860D01*
D02*
G37*
G36*
X18651Y51753D02*
X18622Y51749D01*
X18549Y51719D01*
X18521Y51697D01*
X18451Y51680D01*
X18381Y51697D01*
X18352Y51719D01*
X18279Y51749D01*
X18251Y51753D01*
Y51457D01*
Y51161D01*
X18279Y51164D01*
X18352Y51195D01*
X18381Y51217D01*
X18451Y51234D01*
X18521Y51217D01*
X18549Y51195D01*
X18622Y51164D01*
X18651Y51161D01*
Y51457D01*
Y51753D01*
D02*
G37*
G36*
X18151D02*
X18122Y51749D01*
X18049Y51719D01*
X18021Y51697D01*
X17951Y51680D01*
X17881Y51697D01*
X17852Y51719D01*
X17779Y51749D01*
X17751Y51753D01*
Y51457D01*
Y51161D01*
X17779Y51164D01*
X17852Y51195D01*
X17881Y51217D01*
X17951Y51234D01*
X18021Y51217D01*
X18049Y51195D01*
X18122Y51164D01*
X18151Y51161D01*
Y51457D01*
Y51753D01*
D02*
G37*
G36*
X17651D02*
X17622Y51749D01*
X17549Y51719D01*
X17521Y51697D01*
X17451Y51680D01*
X17381Y51697D01*
X17352Y51719D01*
X17279Y51749D01*
X17251Y51753D01*
Y51457D01*
Y51161D01*
X17279Y51164D01*
X17352Y51195D01*
X17381Y51217D01*
X17451Y51234D01*
X17521Y51217D01*
X17549Y51195D01*
X17622Y51164D01*
X17651Y51161D01*
Y51457D01*
Y51753D01*
D02*
G37*
G36*
X24151D02*
X24122Y51749D01*
X24049Y51719D01*
X24021Y51697D01*
X23951Y51680D01*
X23881Y51697D01*
X23852Y51719D01*
X23779Y51749D01*
X23751Y51753D01*
Y51457D01*
Y51161D01*
X23779Y51164D01*
X23852Y51195D01*
X23881Y51217D01*
X23951Y51234D01*
X24021Y51217D01*
X24049Y51195D01*
X24122Y51164D01*
X24151Y51161D01*
Y51457D01*
Y51753D01*
D02*
G37*
G36*
X17151D02*
X17122Y51749D01*
X17049Y51719D01*
X17021Y51697D01*
X16951Y51680D01*
X16881Y51697D01*
X16852Y51719D01*
X16779Y51749D01*
X16751Y51753D01*
Y51457D01*
Y51161D01*
X16779Y51164D01*
X16852Y51195D01*
X16881Y51217D01*
X16951Y51234D01*
X17021Y51217D01*
X17049Y51195D01*
X17122Y51164D01*
X17151Y51161D01*
Y51457D01*
Y51753D01*
D02*
G37*
G36*
X16651D02*
X16622Y51749D01*
X16549Y51719D01*
X16521Y51697D01*
X16451Y51680D01*
X16381Y51697D01*
X16352Y51719D01*
X16279Y51749D01*
X16251Y51753D01*
Y51457D01*
Y51161D01*
X16279Y51164D01*
X16352Y51195D01*
X16381Y51217D01*
X16451Y51234D01*
X16521Y51217D01*
X16549Y51195D01*
X16622Y51164D01*
X16651Y51161D01*
Y51457D01*
Y51753D01*
D02*
G37*
G36*
X24251D02*
Y51507D01*
X24497D01*
X24493Y51535D01*
X24463Y51608D01*
X24415Y51671D01*
X24352Y51719D01*
X24279Y51749D01*
X24251Y51753D01*
D02*
G37*
G36*
X24497Y51407D02*
X24251D01*
Y51161D01*
X24279Y51164D01*
X24352Y51195D01*
X24415Y51243D01*
X24463Y51305D01*
X24493Y51378D01*
X24497Y51407D01*
D02*
G37*
G36*
X9301Y50771D02*
X9160Y50753D01*
X9028Y50698D01*
X8916Y50612D01*
X8829Y50499D01*
X8822Y50482D01*
X8507D01*
Y50495D01*
X7733D01*
X7733Y50495D01*
X7700D01*
Y50495D01*
X7633Y50495D01*
X7493D01*
X7440Y50517D01*
X7323Y50533D01*
X7205Y50517D01*
X7153Y50495D01*
X6926D01*
Y50297D01*
X6884Y50196D01*
X6869Y50079D01*
X6884Y49961D01*
X6926Y49861D01*
Y49583D01*
X7633D01*
X7700Y49583D01*
Y49583D01*
X7733D01*
Y49583D01*
X8507D01*
Y49972D01*
X8822D01*
X8829Y49954D01*
X8916Y49842D01*
X9028Y49755D01*
X9160Y49701D01*
X9301Y49682D01*
X9442Y49701D01*
X9573Y49755D01*
X9686Y49842D01*
X9772Y49954D01*
X9827Y50086D01*
X9845Y50227D01*
X9827Y50368D01*
X9772Y50499D01*
X9686Y50612D01*
X9573Y50698D01*
X9442Y50753D01*
X9301Y50771D01*
D02*
G37*
G36*
X19283Y50061D02*
X19056D01*
Y49735D01*
X19283D01*
Y50061D01*
D02*
G37*
G36*
X18956D02*
X18729D01*
Y49735D01*
X18956D01*
Y50061D01*
D02*
G37*
G36*
X25838Y49903D02*
X25611D01*
Y49578D01*
X25838D01*
Y49903D01*
D02*
G37*
G36*
X25511D02*
X25284D01*
Y49578D01*
X25511D01*
Y49903D01*
D02*
G37*
G36*
X19283Y49635D02*
X19056D01*
Y49309D01*
X19283D01*
Y49635D01*
D02*
G37*
G36*
X18956D02*
X18729D01*
Y49309D01*
X18956D01*
Y49635D01*
D02*
G37*
G36*
X25838Y49478D02*
X25611D01*
Y49152D01*
X25838D01*
Y49478D01*
D02*
G37*
G36*
X25511D02*
X25284D01*
Y49152D01*
X25511D01*
Y49478D01*
D02*
G37*
G36*
X27922Y47738D02*
X27754D01*
Y47373D01*
X27922D01*
Y47738D01*
D02*
G37*
G36*
X28191Y47273D02*
X28022D01*
Y46908D01*
X28191D01*
Y47273D01*
D02*
G37*
G36*
X27922D02*
X27754D01*
Y46908D01*
X27922D01*
Y47273D01*
D02*
G37*
G36*
X24567Y47580D02*
X24449Y47564D01*
X24340Y47519D01*
X24246Y47447D01*
X24174Y47353D01*
X24129Y47243D01*
X24113Y47126D01*
X24124Y47043D01*
X23668Y46588D01*
X23613Y46505D01*
X23594Y46407D01*
Y44550D01*
X23461D01*
Y43639D01*
X23594D01*
Y41622D01*
X23527Y41571D01*
X23455Y41477D01*
X23410Y41367D01*
X23395Y41250D01*
X23410Y41133D01*
X23455Y41023D01*
X23527Y40929D01*
X23621Y40857D01*
X23731Y40812D01*
X23848Y40796D01*
X23966Y40812D01*
X24075Y40857D01*
X24169Y40929D01*
X24241Y41023D01*
X24287Y41133D01*
X24302Y41250D01*
X24287Y41367D01*
X24241Y41477D01*
X24169Y41571D01*
X24103Y41622D01*
Y43568D01*
X24174Y43639D01*
X24235D01*
X24335Y43639D01*
X24942D01*
Y41474D01*
X24876Y41423D01*
X24804Y41329D01*
X24758Y41220D01*
X24743Y41102D01*
X24758Y40985D01*
X24804Y40875D01*
X24876Y40781D01*
X24970Y40709D01*
X25079Y40664D01*
X25197Y40648D01*
X25314Y40664D01*
X25424Y40709D01*
X25518Y40781D01*
X25590Y40875D01*
X25635Y40985D01*
X25651Y41102D01*
X25635Y41220D01*
X25590Y41329D01*
X25518Y41423D01*
X25452Y41474D01*
Y46142D01*
X25472Y46160D01*
X25590Y46176D01*
X25613Y46186D01*
X25644Y46170D01*
X25700Y46113D01*
X25688Y46024D01*
X25703Y45906D01*
X25749Y45797D01*
X25759Y45783D01*
Y44590D01*
X25627D01*
Y43678D01*
X25759D01*
Y40539D01*
X25693Y40488D01*
X25621Y40394D01*
X25575Y40285D01*
X25560Y40167D01*
X25575Y40050D01*
X25621Y39940D01*
X25693Y39846D01*
X25787Y39774D01*
X25896Y39729D01*
X26014Y39713D01*
X26131Y39729D01*
X26241Y39774D01*
X26335Y39846D01*
X26407Y39940D01*
X26452Y40050D01*
X26468Y40167D01*
X26452Y40285D01*
X26407Y40394D01*
X26335Y40488D01*
X26269Y40539D01*
Y43607D01*
X26339Y43678D01*
X26401D01*
X26501Y43678D01*
X27208D01*
Y43879D01*
X27739D01*
X27789Y43813D01*
X27883Y43741D01*
X27993Y43695D01*
X28110Y43680D01*
X28228Y43695D01*
X28337Y43741D01*
X28431Y43813D01*
X28503Y43907D01*
X28549Y44016D01*
X28564Y44134D01*
X28549Y44251D01*
X28503Y44361D01*
X28431Y44455D01*
X28337Y44527D01*
X28228Y44572D01*
X28110Y44588D01*
X27993Y44572D01*
X27883Y44527D01*
X27789Y44455D01*
X27739Y44389D01*
X27208D01*
Y44590D01*
X26501D01*
X26434Y44590D01*
X26339Y44590D01*
X26269Y44660D01*
Y45589D01*
X26369Y45631D01*
X26463Y45703D01*
X26535Y45797D01*
X26580Y45906D01*
X26596Y46024D01*
X26580Y46141D01*
X26535Y46251D01*
X26463Y46345D01*
X26369Y46417D01*
X26259Y46462D01*
X26142Y46478D01*
X26024Y46462D01*
X26001Y46452D01*
X25970Y46468D01*
X25915Y46525D01*
X25926Y46614D01*
X25911Y46732D01*
X25866Y46841D01*
X25793Y46935D01*
X25699Y47007D01*
X25590Y47053D01*
X25472Y47068D01*
X25355Y47053D01*
X25245Y47007D01*
X25152Y46935D01*
X25079Y46841D01*
X25034Y46732D01*
X25019Y46614D01*
X25029Y46532D01*
X25017Y46519D01*
X25006Y46503D01*
X24907Y46486D01*
X24882Y46505D01*
X24773Y46551D01*
X24656Y46566D01*
X24538Y46551D01*
X24462Y46519D01*
X24405Y46604D01*
X24484Y46683D01*
X24567Y46672D01*
X24684Y46688D01*
X24794Y46733D01*
X24888Y46805D01*
X24960Y46899D01*
X25005Y47009D01*
X25021Y47126D01*
X25005Y47243D01*
X24960Y47353D01*
X24888Y47447D01*
X24794Y47519D01*
X24684Y47564D01*
X24567Y47580D01*
D02*
G37*
G36*
X33504Y55100D02*
X33386Y55084D01*
X33277Y55039D01*
X33183Y54967D01*
X33111Y54873D01*
X33066Y54763D01*
X33050Y54646D01*
X33066Y54528D01*
X33111Y54419D01*
X33183Y54325D01*
X33249Y54274D01*
Y39427D01*
X33183Y39376D01*
X33111Y39282D01*
X33066Y39173D01*
X33050Y39055D01*
X33066Y38938D01*
X33111Y38828D01*
X33183Y38734D01*
X33277Y38662D01*
X33386Y38617D01*
X33504Y38601D01*
X33621Y38617D01*
X33731Y38662D01*
X33825Y38734D01*
X33897Y38828D01*
X33942Y38938D01*
X33958Y39055D01*
X33942Y39173D01*
X33897Y39282D01*
X33825Y39376D01*
X33759Y39427D01*
Y54274D01*
X33825Y54325D01*
X33897Y54419D01*
X33942Y54528D01*
X33958Y54646D01*
X33942Y54763D01*
X33897Y54873D01*
X33825Y54967D01*
X33731Y55039D01*
X33621Y55084D01*
X33504Y55100D01*
D02*
G37*
G36*
X26014Y37353D02*
X25896Y37338D01*
X25787Y37293D01*
X25693Y37221D01*
X25621Y37127D01*
X25575Y37017D01*
X25560Y36900D01*
X25575Y36782D01*
X25611Y36696D01*
Y36426D01*
X25540Y36394D01*
X25511Y36389D01*
X25424Y36456D01*
X25314Y36501D01*
X25197Y36517D01*
X25079Y36501D01*
X24970Y36456D01*
X24876Y36384D01*
X24804Y36290D01*
X24758Y36180D01*
X24743Y36063D01*
X24758Y35946D01*
X24804Y35836D01*
X24876Y35742D01*
X24942Y35691D01*
Y31693D01*
X24950Y31655D01*
X24857Y31605D01*
X24103Y32360D01*
Y35937D01*
X24169Y35988D01*
X24241Y36082D01*
X24287Y36192D01*
X24302Y36309D01*
X24287Y36427D01*
X24241Y36536D01*
X24169Y36630D01*
X24075Y36702D01*
X23966Y36747D01*
X23848Y36763D01*
X23731Y36747D01*
X23621Y36702D01*
X23527Y36630D01*
X23455Y36536D01*
X23410Y36427D01*
X23395Y36309D01*
X23410Y36192D01*
X23455Y36082D01*
X23527Y35988D01*
X23594Y35937D01*
Y32254D01*
X23613Y32156D01*
X23668Y32074D01*
X28376Y27366D01*
X28365Y27283D01*
X28380Y27166D01*
X28426Y27057D01*
X28498Y26963D01*
X28592Y26890D01*
X28701Y26845D01*
X28819Y26830D01*
X28936Y26845D01*
X29046Y26890D01*
X29140Y26963D01*
X29212Y27057D01*
X29257Y27166D01*
X29273Y27283D01*
X29257Y27401D01*
X29212Y27510D01*
X29140Y27604D01*
X29046Y27677D01*
X28936Y27722D01*
X28819Y27737D01*
X28736Y27726D01*
X28214Y28249D01*
X28253Y28351D01*
X28337Y28386D01*
X28431Y28459D01*
X28503Y28553D01*
X28549Y28662D01*
X28564Y28780D01*
X28549Y28897D01*
X28503Y29006D01*
X28431Y29100D01*
X28337Y29173D01*
X28228Y29218D01*
X28110Y29233D01*
X28028Y29223D01*
X27598Y29652D01*
X27634Y29758D01*
X27637Y29758D01*
X27747Y29804D01*
X27841Y29876D01*
X27913Y29970D01*
X27958Y30079D01*
X27974Y30197D01*
X27958Y30314D01*
X27913Y30424D01*
X27841Y30518D01*
X27747Y30590D01*
X27637Y30635D01*
X27520Y30651D01*
X27437Y30640D01*
X26121Y31956D01*
Y36460D01*
X26131Y36461D01*
X26241Y36507D01*
X26335Y36579D01*
X26407Y36673D01*
X26452Y36782D01*
X26468Y36900D01*
X26452Y37017D01*
X26407Y37127D01*
X26335Y37221D01*
X26241Y37293D01*
X26131Y37338D01*
X26014Y37353D01*
D02*
G37*
G36*
X30079Y42540D02*
X29961Y42525D01*
X29852Y42480D01*
X29758Y42408D01*
X29686Y42314D01*
X29640Y42204D01*
X29625Y42087D01*
X29640Y41969D01*
X29686Y41860D01*
X29758Y41766D01*
X29824Y41715D01*
Y33649D01*
X28862Y32687D01*
X28780Y32698D01*
X28662Y32683D01*
X28553Y32637D01*
X28459Y32565D01*
X28386Y32471D01*
X28341Y32362D01*
X28326Y32244D01*
X28341Y32127D01*
X28386Y32017D01*
X28459Y31923D01*
X28553Y31851D01*
X28662Y31806D01*
X28780Y31790D01*
X28897Y31806D01*
X29006Y31851D01*
X29100Y31923D01*
X29173Y32017D01*
X29218Y32127D01*
X29233Y32244D01*
X29223Y32327D01*
X30259Y33363D01*
X30314Y33446D01*
X30334Y33543D01*
Y41715D01*
X30400Y41766D01*
X30472Y41860D01*
X30517Y41969D01*
X30533Y42087D01*
X30517Y42204D01*
X30472Y42314D01*
X30400Y42408D01*
X30306Y42480D01*
X30196Y42525D01*
X30079Y42540D01*
D02*
G37*
G36*
X31551Y32170D02*
X31446Y32156D01*
X31349Y32116D01*
X31301Y32079D01*
X31253Y32116D01*
X31155Y32156D01*
X31051Y32170D01*
X30946Y32156D01*
X30849Y32116D01*
X30766Y32052D01*
X30701Y31968D01*
X30661Y31871D01*
X30647Y31767D01*
X30661Y31662D01*
X30701Y31565D01*
X30766Y31481D01*
X30849Y31417D01*
X30946Y31377D01*
X31051Y31363D01*
X31155Y31377D01*
X31253Y31417D01*
X31301Y31454D01*
X31349Y31417D01*
X31446Y31377D01*
X31551Y31363D01*
X31655Y31377D01*
X31753Y31417D01*
X31836Y31481D01*
X31900Y31565D01*
X31940Y31662D01*
X31954Y31767D01*
X31940Y31871D01*
X31900Y31968D01*
X31836Y32052D01*
X31753Y32116D01*
X31655Y32156D01*
X31551Y32170D01*
D02*
G37*
G36*
X6851D02*
X6746Y32156D01*
X6649Y32116D01*
X6601Y32079D01*
X6553Y32116D01*
X6455Y32156D01*
X6351Y32170D01*
X6246Y32156D01*
X6149Y32116D01*
X6065Y32052D01*
X6001Y31968D01*
X5961Y31871D01*
X5947Y31767D01*
X5961Y31662D01*
X6001Y31565D01*
X6065Y31481D01*
X6149Y31417D01*
X6246Y31377D01*
X6351Y31363D01*
X6455Y31377D01*
X6553Y31417D01*
X6601Y31454D01*
X6649Y31417D01*
X6746Y31377D01*
X6851Y31363D01*
X6955Y31377D01*
X7053Y31417D01*
X7136Y31481D01*
X7200Y31565D01*
X7240Y31662D01*
X7254Y31767D01*
X7240Y31871D01*
X7200Y31968D01*
X7136Y32052D01*
X7053Y32116D01*
X6955Y32156D01*
X6851Y32170D01*
D02*
G37*
G36*
X11473Y30259D02*
X11373Y30259D01*
X10666D01*
Y29777D01*
X10475Y29586D01*
X10135D01*
X10085Y29652D01*
X9991Y29724D01*
X9881Y29769D01*
X9764Y29785D01*
X9646Y29769D01*
X9537Y29724D01*
X9443Y29652D01*
X9371Y29558D01*
X9325Y29448D01*
X9310Y29331D01*
X9325Y29213D01*
X9371Y29104D01*
X9443Y29010D01*
X9537Y28938D01*
X9646Y28892D01*
X9764Y28877D01*
X9881Y28892D01*
X9991Y28938D01*
X10085Y29010D01*
X10135Y29076D01*
X10581D01*
X10678Y29095D01*
X10761Y29150D01*
X10958Y29347D01*
X11373D01*
X11440Y29347D01*
X11540Y29347D01*
X12247D01*
Y29548D01*
X15603D01*
X17834Y27318D01*
Y25513D01*
X17734Y25471D01*
X17287Y25918D01*
Y26401D01*
X16580D01*
X16513Y26401D01*
X16418Y26401D01*
X16347Y26472D01*
Y26626D01*
X16413Y26677D01*
X16486Y26771D01*
X16531Y26881D01*
X16546Y26998D01*
X16531Y27116D01*
X16486Y27225D01*
X16413Y27319D01*
X16319Y27391D01*
X16210Y27436D01*
X16093Y27452D01*
X15975Y27436D01*
X15866Y27391D01*
X15772Y27319D01*
X15699Y27225D01*
X15654Y27116D01*
X15639Y26998D01*
X15654Y26881D01*
X15699Y26771D01*
X15772Y26677D01*
X15838Y26626D01*
Y26401D01*
X15706D01*
Y25489D01*
X16413D01*
X16480Y25489D01*
X16580Y25489D01*
X16995D01*
X17334Y25150D01*
Y24709D01*
X17287Y24676D01*
X17234Y24654D01*
X17172Y24680D01*
X17089Y24691D01*
X17006Y24680D01*
X16928Y24648D01*
X16912Y24636D01*
X16839Y24606D01*
X16765Y24636D01*
X16749Y24648D01*
X16672Y24680D01*
X16589Y24691D01*
X16506Y24680D01*
X16428Y24648D01*
X16412Y24636D01*
X16339Y24606D01*
X16265Y24636D01*
X16249Y24648D01*
X16172Y24680D01*
X16089Y24691D01*
X16006Y24680D01*
X15928Y24648D01*
X15912Y24636D01*
X15839Y24606D01*
X15765Y24636D01*
X15749Y24648D01*
X15672Y24680D01*
X15589Y24691D01*
X15506Y24680D01*
X15428Y24648D01*
X15412Y24636D01*
X15339Y24606D01*
X15265Y24636D01*
X15249Y24648D01*
X15172Y24680D01*
X15089Y24691D01*
X15006Y24680D01*
X14928Y24648D01*
X14862Y24597D01*
X14839Y24568D01*
X14772Y24538D01*
X14711Y24551D01*
X14674Y24576D01*
X14639Y24583D01*
Y24114D01*
Y23646D01*
X14674Y23653D01*
X14711Y23678D01*
X14747Y23685D01*
X14834Y23619D01*
Y23297D01*
X14853Y23200D01*
X14908Y23117D01*
X16867Y21158D01*
X16950Y21103D01*
X17047Y21084D01*
X21997D01*
X22017Y20984D01*
X22017Y20984D01*
X21923Y20911D01*
X21851Y20817D01*
X21806Y20708D01*
X21790Y20591D01*
X21806Y20473D01*
X21851Y20364D01*
X21923Y20270D01*
X21989Y20219D01*
Y19700D01*
X21910Y19684D01*
X21857Y19649D01*
X21788D01*
Y19570D01*
X21772Y19546D01*
X21753Y19449D01*
X21772Y19351D01*
X21788Y19328D01*
Y18942D01*
X21788Y18875D01*
X21788Y18780D01*
X21775Y18680D01*
X20643D01*
X18909Y20414D01*
Y20630D01*
X18899Y20713D01*
X18866Y20790D01*
X18815Y20857D01*
X18749Y20908D01*
X18672Y20940D01*
X18589Y20951D01*
X18506Y20940D01*
X18428Y20908D01*
X18412Y20895D01*
X18339Y20866D01*
X18265Y20895D01*
X18249Y20908D01*
X18172Y20940D01*
X18089Y20951D01*
X18006Y20940D01*
X17928Y20908D01*
X17912Y20895D01*
X17839Y20866D01*
X17765Y20895D01*
X17749Y20908D01*
X17672Y20940D01*
X17589Y20951D01*
X17506Y20940D01*
X17428Y20908D01*
X17412Y20895D01*
X17339Y20866D01*
X17265Y20895D01*
X17249Y20908D01*
X17172Y20940D01*
X17089Y20951D01*
X17006Y20940D01*
X16928Y20908D01*
X16912Y20895D01*
X16839Y20866D01*
X16765Y20895D01*
X16749Y20908D01*
X16672Y20940D01*
X16589Y20951D01*
X16506Y20940D01*
X16443Y20914D01*
X16390Y20935D01*
X16343Y20969D01*
Y21313D01*
X16324Y21411D01*
X16269Y21493D01*
X15938Y21824D01*
X15855Y21879D01*
X15758Y21899D01*
X13794D01*
X13724Y21969D01*
Y22031D01*
X13724Y22131D01*
Y22838D01*
X13707D01*
X13667Y22938D01*
X13706Y23032D01*
X13722Y23150D01*
X13706Y23267D01*
X13661Y23377D01*
X13589Y23471D01*
X13495Y23543D01*
X13385Y23588D01*
X13268Y23603D01*
X13150Y23588D01*
X13041Y23543D01*
X12947Y23471D01*
X12875Y23377D01*
X12829Y23267D01*
X12814Y23150D01*
X12829Y23032D01*
X12868Y22938D01*
X12829Y22838D01*
X12812D01*
Y22131D01*
X12812Y22064D01*
X12812Y21964D01*
Y21257D01*
X13724D01*
Y21389D01*
X15652D01*
X15834Y21207D01*
Y20969D01*
X15787Y20935D01*
X15734Y20914D01*
X15672Y20940D01*
X15589Y20951D01*
X15506Y20940D01*
X15428Y20908D01*
X15412Y20895D01*
X15339Y20866D01*
X15265Y20895D01*
X15249Y20908D01*
X15172Y20940D01*
X15089Y20951D01*
X15006Y20940D01*
X14928Y20908D01*
X14912Y20895D01*
X14839Y20866D01*
X14765Y20895D01*
X14749Y20908D01*
X14672Y20940D01*
X14589Y20951D01*
X14506Y20940D01*
X14428Y20908D01*
X14362Y20857D01*
X14339Y20827D01*
X14272Y20798D01*
X14211Y20811D01*
X14174Y20835D01*
X14139Y20842D01*
Y20374D01*
X14089D01*
Y20324D01*
X13866D01*
Y20118D01*
X13883Y20033D01*
X13931Y19961D01*
X13901Y19861D01*
X12714D01*
X12208Y20367D01*
Y20850D01*
X11501D01*
X11434Y20850D01*
X11334Y20850D01*
X10627D01*
Y20649D01*
X10273D01*
X10236Y20739D01*
X10163Y20833D01*
X10069Y20905D01*
X9960Y20950D01*
X9843Y20966D01*
X9725Y20950D01*
X9616Y20905D01*
X9522Y20833D01*
X9449Y20739D01*
X9404Y20629D01*
X9389Y20512D01*
X9404Y20394D01*
X9449Y20285D01*
X9522Y20191D01*
X9616Y20119D01*
X9725Y20073D01*
X9843Y20058D01*
X9960Y20073D01*
X10069Y20119D01*
X10096Y20139D01*
X10627D01*
Y19938D01*
X11334D01*
X11401Y19938D01*
X11501Y19938D01*
X11916D01*
X12428Y19426D01*
X12511Y19371D01*
X12608Y19351D01*
X14204D01*
X14245Y19251D01*
X13123Y18129D01*
X11420D01*
Y18330D01*
X10713D01*
X10646Y18330D01*
X10546Y18330D01*
X9839D01*
Y17838D01*
X9610Y17608D01*
X9528Y17619D01*
X9410Y17604D01*
X9301Y17558D01*
X9207Y17486D01*
X9134Y17392D01*
X9089Y17283D01*
X9074Y17165D01*
X9089Y17048D01*
X9134Y16938D01*
X9207Y16844D01*
X9301Y16772D01*
X9410Y16727D01*
X9528Y16711D01*
X9645Y16727D01*
X9754Y16772D01*
X9848Y16844D01*
X9921Y16938D01*
X9966Y17048D01*
X9981Y17165D01*
X9971Y17248D01*
X10141Y17418D01*
X10546D01*
X10613Y17418D01*
X10713Y17418D01*
X11420D01*
Y17619D01*
X13180D01*
X13222Y17519D01*
X10647Y14944D01*
X10591Y14861D01*
X10572Y14764D01*
Y11893D01*
X10371D01*
Y11186D01*
X10371Y11119D01*
X10371Y11019D01*
Y10771D01*
X9807Y10207D01*
X9724Y10218D01*
X9607Y10202D01*
X9497Y10157D01*
X9403Y10085D01*
X9331Y9991D01*
X9286Y9881D01*
X9271Y9764D01*
X9286Y9646D01*
X9331Y9537D01*
X9403Y9443D01*
X9497Y9371D01*
X9607Y9325D01*
X9724Y9310D01*
X9842Y9325D01*
X9951Y9371D01*
X10045Y9443D01*
X10117Y9537D01*
X10163Y9646D01*
X10178Y9764D01*
X10167Y9846D01*
X10633Y10312D01*
X11283D01*
Y11019D01*
X11283Y11086D01*
X11283Y11186D01*
Y11893D01*
X11082D01*
Y14658D01*
X15769Y19345D01*
X15824Y19428D01*
X15843Y19526D01*
Y19779D01*
X15890Y19813D01*
X15943Y19834D01*
X16006Y19808D01*
X16089Y19797D01*
X16172Y19808D01*
X16230Y19832D01*
X16292Y19806D01*
X16330Y19776D01*
Y17534D01*
X16259Y17464D01*
X16198D01*
X16098Y17464D01*
X15391D01*
Y16552D01*
X15391Y16552D01*
X15391D01*
X15384Y16457D01*
X15339Y16348D01*
X15324Y16230D01*
X15339Y16113D01*
X15384Y16003D01*
X15457Y15909D01*
X15551Y15837D01*
X15660Y15792D01*
X15778Y15776D01*
X15895Y15792D01*
X16005Y15837D01*
X16099Y15909D01*
X16171Y16003D01*
X16216Y16113D01*
X16231Y16230D01*
X16216Y16348D01*
X16171Y16457D01*
X16170Y16474D01*
X16224Y16552D01*
X16265Y16552D01*
X16972D01*
Y16986D01*
X17064Y17024D01*
X18092Y15997D01*
Y12326D01*
X17891D01*
Y11619D01*
X17891Y11552D01*
X17891Y11458D01*
X17820Y11387D01*
X17195D01*
X17097Y11367D01*
X17015Y11312D01*
X16627Y10924D01*
X16395D01*
X16345Y10990D01*
X16251Y11062D01*
X16141Y11108D01*
X16024Y11123D01*
X15906Y11108D01*
X15797Y11062D01*
X15703Y10990D01*
X15631Y10896D01*
X15585Y10787D01*
X15570Y10669D01*
X15585Y10552D01*
X15631Y10442D01*
X15703Y10348D01*
X15797Y10276D01*
X15906Y10231D01*
X16024Y10215D01*
X16141Y10231D01*
X16251Y10276D01*
X16345Y10348D01*
X16395Y10414D01*
X16732D01*
X16830Y10434D01*
X16913Y10489D01*
X17300Y10877D01*
X17891D01*
Y10745D01*
X18802D01*
Y11452D01*
X18802Y11519D01*
X18802Y11619D01*
Y12326D01*
X18601D01*
Y16094D01*
X18622Y16111D01*
X18696Y16141D01*
X19942Y14894D01*
Y12326D01*
X19741D01*
Y11619D01*
X19741Y11552D01*
X19741Y11452D01*
Y10745D01*
X19942D01*
Y10332D01*
X19876Y10282D01*
X19804Y10188D01*
X19758Y10078D01*
X19743Y9961D01*
X19758Y9843D01*
X19804Y9734D01*
X19876Y9640D01*
X19970Y9568D01*
X20079Y9522D01*
X20197Y9507D01*
X20314Y9522D01*
X20424Y9568D01*
X20518Y9640D01*
X20590Y9734D01*
X20635Y9843D01*
X20651Y9961D01*
X20635Y10078D01*
X20590Y10188D01*
X20518Y10282D01*
X20452Y10332D01*
Y10745D01*
X20653D01*
Y11452D01*
X20653Y11519D01*
X20653Y11619D01*
Y12326D01*
X20452D01*
Y15000D01*
X20432Y15098D01*
X20377Y15180D01*
X17843Y17714D01*
Y19538D01*
X17943Y19580D01*
X19702Y17822D01*
Y17406D01*
X19702Y17339D01*
X19702Y17239D01*
Y16532D01*
X19719D01*
X19758Y16432D01*
X19719Y16338D01*
X19704Y16220D01*
X19719Y16103D01*
X19764Y15994D01*
X19837Y15900D01*
X19931Y15827D01*
X20040Y15782D01*
X20157Y15767D01*
X20275Y15782D01*
X20384Y15827D01*
X20478Y15900D01*
X20551Y15994D01*
X20596Y16103D01*
X20611Y16220D01*
X20596Y16338D01*
X20557Y16432D01*
X20596Y16532D01*
X20613D01*
Y17239D01*
X20613Y17306D01*
X20613Y17406D01*
Y18113D01*
X20690Y18170D01*
X21788D01*
Y18068D01*
X22700D01*
Y18775D01*
X22700Y18842D01*
X22700Y18942D01*
Y19649D01*
X22499D01*
Y20219D01*
X22565Y20270D01*
X22637Y20364D01*
X22683Y20473D01*
X22698Y20591D01*
X22683Y20708D01*
X22637Y20817D01*
X22565Y20911D01*
X22471Y20984D01*
X22471Y20984D01*
X22491Y21084D01*
X27205D01*
X27302Y21103D01*
X27385Y21158D01*
X28736Y22510D01*
X28819Y22499D01*
X28936Y22514D01*
X29046Y22560D01*
X29140Y22632D01*
X29212Y22726D01*
X29257Y22835D01*
X29273Y22953D01*
X29257Y23070D01*
X29212Y23180D01*
X29140Y23274D01*
X29046Y23346D01*
X28936Y23391D01*
X28819Y23407D01*
X28701Y23391D01*
X28656Y23373D01*
X28552Y23423D01*
X28546Y23431D01*
X28503Y23534D01*
X28431Y23628D01*
X28337Y23700D01*
X28228Y23746D01*
X28110Y23761D01*
X28066Y23755D01*
X27976Y23817D01*
X27971Y23838D01*
X27958Y23936D01*
X27913Y24046D01*
X27841Y24140D01*
X27747Y24212D01*
X27637Y24257D01*
X27520Y24273D01*
X27435Y24262D01*
X27355Y24321D01*
X27342Y24341D01*
X27328Y24448D01*
X27283Y24558D01*
X27211Y24652D01*
X27117Y24724D01*
X27007Y24769D01*
X26890Y24785D01*
X26772Y24769D01*
X26663Y24724D01*
X26569Y24652D01*
X26497Y24558D01*
X26451Y24448D01*
X26436Y24331D01*
X26447Y24248D01*
X25013Y22814D01*
X17743D01*
X17343Y23214D01*
Y23519D01*
X17390Y23553D01*
X17443Y23574D01*
X17506Y23548D01*
X17589Y23537D01*
X17672Y23548D01*
X17749Y23580D01*
X17765Y23593D01*
X17839Y23622D01*
X17912Y23593D01*
X17928Y23580D01*
X18006Y23548D01*
X18089Y23537D01*
X18172Y23548D01*
X18249Y23580D01*
X18265Y23593D01*
X18339Y23622D01*
X18412Y23593D01*
X18428Y23580D01*
X18506Y23548D01*
X18589Y23537D01*
X18672Y23548D01*
X18749Y23580D01*
X18815Y23631D01*
X18866Y23698D01*
X18899Y23775D01*
X18909Y23858D01*
Y24075D01*
X20594Y25759D01*
X22576D01*
Y25627D01*
X23487D01*
Y26334D01*
X23487Y26401D01*
X23487Y26501D01*
Y27208D01*
X22576D01*
Y27203D01*
X22545Y27180D01*
X22476Y27158D01*
X22402Y27214D01*
X22293Y27259D01*
X22175Y27275D01*
X22058Y27259D01*
X21948Y27214D01*
X21854Y27142D01*
X21782Y27048D01*
X21737Y26938D01*
X21721Y26821D01*
X21737Y26703D01*
X21782Y26594D01*
X21854Y26500D01*
X21948Y26428D01*
X22058Y26382D01*
X22069Y26381D01*
X22102Y26276D01*
X22094Y26269D01*
X20488D01*
X20391Y26249D01*
X20308Y26194D01*
X18756Y24642D01*
X18749Y24648D01*
X18672Y24680D01*
X18589Y24691D01*
X18506Y24680D01*
X18443Y24654D01*
X18390Y24676D01*
X18343Y24709D01*
Y27423D01*
X18324Y27521D01*
X18269Y27603D01*
X15889Y29983D01*
X15806Y30039D01*
X15709Y30058D01*
X12247D01*
Y30259D01*
X11540D01*
X11473Y30259D01*
D02*
G37*
G36*
X11084Y24007D02*
X10759D01*
Y23780D01*
X11084D01*
Y24007D01*
D02*
G37*
G36*
X10659D02*
X10333D01*
Y23780D01*
X10659D01*
Y24007D01*
D02*
G37*
G36*
X11184Y24915D02*
X10233D01*
Y24160D01*
X11184D01*
Y24283D01*
X13507D01*
X13768Y24021D01*
Y23858D01*
X13779Y23775D01*
X13811Y23698D01*
X13862Y23631D01*
X13928Y23580D01*
X14006Y23548D01*
X14089Y23537D01*
X14172Y23548D01*
X14249Y23580D01*
X14315Y23631D01*
X14338Y23661D01*
X14406Y23690D01*
X14466Y23678D01*
X14503Y23653D01*
X14539Y23646D01*
Y24114D01*
Y24583D01*
X14503Y24576D01*
X14466Y24551D01*
X14406Y24538D01*
X14338Y24568D01*
X14315Y24597D01*
X14249Y24648D01*
X14172Y24680D01*
X14089Y24691D01*
X14006Y24680D01*
X13928Y24648D01*
X13891Y24619D01*
X13792Y24718D01*
X13710Y24773D01*
X13612Y24792D01*
X11184D01*
Y24915D01*
D02*
G37*
G36*
X11084Y23680D02*
X10759D01*
Y23453D01*
X11084D01*
Y23680D01*
D02*
G37*
G36*
X10659D02*
X10333D01*
Y23453D01*
X10659D01*
Y23680D01*
D02*
G37*
G36*
X14039Y20842D02*
X14003Y20835D01*
X13931Y20787D01*
X13883Y20715D01*
X13866Y20630D01*
Y20424D01*
X14039D01*
Y20842D01*
D02*
G37*
%LPD*%
D11*
X25866Y31850D02*
Y36752D01*
X33504Y39055D02*
Y54646D01*
X2638Y55906D02*
X4646Y57913D01*
X2638Y53071D02*
Y55906D01*
X20201Y50073D02*
Y51457D01*
X19813Y49685D02*
X20201Y50073D01*
X24656Y44094D02*
Y46112D01*
X26821Y44134D02*
X28110D01*
X5512Y52244D02*
X6693Y53425D01*
X6535Y56772D02*
X17504D01*
X7913Y56339D02*
X14016D01*
X13701Y51457D02*
Y51968D01*
X22175Y26821D02*
X23031D01*
X9764Y29331D02*
X10581D01*
X11053Y29803D01*
X11860D02*
X15709D01*
X18089Y27423D01*
Y24114D02*
Y27423D01*
X16093Y25945D02*
Y26998D01*
X16900Y25945D02*
X17589Y25256D01*
Y24114D02*
Y25256D01*
X13612Y24537D02*
X14035Y24114D01*
X10709Y24537D02*
X13612D01*
X22244Y19262D02*
Y20591D01*
X9843Y20512D02*
X9961Y20394D01*
X11014D01*
X11821D02*
X12608Y19606D01*
X14331D01*
X14589Y19864D01*
Y20374D01*
X16089D02*
Y21313D01*
X15758Y21644D02*
X16089Y21313D01*
X13268Y21644D02*
X15758D01*
X13268Y22451D02*
Y23150D01*
X20157Y16220D02*
Y16919D01*
X20197Y9961D02*
Y11132D01*
X15089Y23297D02*
Y24114D01*
Y23297D02*
X17047Y21339D01*
X27205D01*
X28819Y22953D01*
X23848Y32254D02*
X28819Y27283D01*
X23848Y32254D02*
Y36309D01*
Y41250D02*
Y44094D01*
Y46407D01*
X24567Y47126D01*
X26756Y50850D02*
Y60024D01*
X15589Y23703D02*
Y24114D01*
Y23703D02*
X17480Y21811D01*
X26614D01*
X28110Y23307D01*
X25197Y31693D02*
X28110Y28780D01*
X25197Y31693D02*
Y36063D01*
Y41102D02*
Y46339D01*
X25472Y46614D01*
X27953Y50906D02*
X28756Y51709D01*
Y60024D01*
X16024Y10669D02*
X16732D01*
X18337Y11142D02*
X18346Y11132D01*
X18337Y11142D02*
X18346D01*
X17195Y11132D02*
X18346D01*
X16732Y10669D02*
X17195Y11132D01*
X10659Y10699D02*
X10827D01*
X9724Y9764D02*
X10659Y10699D01*
X16033Y20319D02*
X16089Y20374D01*
X16585Y17008D02*
Y20370D01*
X16589Y20374D01*
X15778Y16230D02*
Y17008D01*
X20537Y18425D02*
X22234D01*
X18589Y20374D02*
X20537Y18425D01*
X22008Y19449D02*
X22018D01*
X18089Y19795D02*
X20157Y17726D01*
X18089Y19795D02*
Y20374D01*
X18346Y11939D02*
Y16102D01*
X17089Y17360D02*
X18346Y16102D01*
X17089Y17360D02*
Y20374D01*
X20197Y11939D02*
Y15000D01*
X17589Y17608D02*
X20197Y15000D01*
X17589Y17608D02*
Y20374D01*
X10226Y17864D02*
Y17874D01*
X9528Y17165D02*
X10226Y17864D01*
X10827Y11506D02*
Y14764D01*
X15589Y19526D01*
Y20374D01*
X15089Y19734D02*
Y20374D01*
X13228Y17874D02*
X15089Y19734D01*
X11033Y17874D02*
X13228D01*
X20488Y26014D02*
X23031D01*
X18589Y24114D02*
X20488Y26014D01*
X31467Y47323D02*
Y50908D01*
X31880Y51321D01*
Y51785D01*
X31467Y52198D02*
X31880Y51785D01*
X31467Y52198D02*
Y59734D01*
X31756Y60024D01*
X28720Y47323D02*
X30659D01*
X28346Y48189D02*
Y49972D01*
X28601Y50227D01*
X25756Y57512D02*
Y60024D01*
X19701Y51457D02*
X25756Y57512D01*
X24756Y57012D02*
Y60024D01*
X19201Y51457D02*
X24756Y57012D01*
X15518Y51785D02*
X23756Y60024D01*
X15065Y51785D02*
X15518D01*
X14872Y51593D02*
X15065Y51785D01*
X14701Y51457D02*
X14872D01*
Y51593D01*
X32807Y61075D02*
Y63476D01*
X31807Y61075D02*
Y63476D01*
X30807Y61075D02*
Y63476D01*
X29807Y61075D02*
Y63476D01*
X28807Y61075D02*
Y63476D01*
X27807Y61075D02*
Y63476D01*
X26807Y61075D02*
Y63476D01*
X25807Y61075D02*
Y63476D01*
X24807Y61075D02*
Y63476D01*
X23756Y63425D02*
X23807Y63476D01*
Y61075D02*
Y63476D01*
X22807Y61075D02*
Y63476D01*
X21807Y61075D02*
Y63476D01*
X20807Y61075D02*
Y63476D01*
X19807Y61075D02*
Y63476D01*
X18807Y61075D02*
Y63476D01*
X17807Y61075D02*
Y63476D01*
X16807Y61075D02*
Y63476D01*
X15807Y61075D02*
Y63476D01*
X14807Y61075D02*
Y63476D01*
X13807Y61075D02*
Y63476D01*
X20856Y51112D02*
X21201Y51457D01*
X20856Y49606D02*
Y51112D01*
X21701Y49644D02*
Y51457D01*
X21663Y49606D02*
X21701Y49644D01*
X22201Y50230D02*
Y51457D01*
Y50230D02*
X22825Y49606D01*
X22701Y50537D02*
Y51457D01*
Y50537D02*
X23632Y49606D01*
X23201Y51081D02*
Y51457D01*
Y51081D02*
X24754Y49528D01*
X8307Y50227D02*
X9301D01*
X14201Y51469D02*
X22756Y60024D01*
X13701Y51968D02*
X21756Y60024D01*
X30722Y59990D02*
X30756Y60024D01*
X30722Y50604D02*
Y59990D01*
X30039Y49921D02*
X30722Y50604D01*
X30079Y33543D02*
Y42087D01*
X28780Y32244D02*
X30079Y33543D01*
X25118Y22559D02*
X26890Y24331D01*
X17638Y22559D02*
X25118D01*
X17089Y23108D02*
X17638Y22559D01*
X17089Y23108D02*
Y24114D01*
X29756Y50504D02*
Y60024D01*
X29331Y50079D02*
X29756Y50504D01*
X25866Y31850D02*
X27520Y30197D01*
X25827Y22126D02*
X27520Y23819D01*
X17717Y22126D02*
X25827D01*
X16589Y23254D02*
X17717Y22126D01*
X16589Y23254D02*
Y24114D01*
X26014Y45896D02*
X26142Y46024D01*
X26014Y44134D02*
Y45896D01*
Y40167D02*
Y44134D01*
X0Y0D02*
Y66024D01*
Y0D02*
X34961D01*
Y66024D01*
X0D02*
X34961D01*
D13*
X25561Y49528D02*
D03*
X24754D02*
D03*
X23632Y49606D02*
D03*
X22825D02*
D03*
X20856D02*
D03*
X21663D02*
D03*
X19813Y49685D02*
D03*
X19006D02*
D03*
D19*
X11821Y20394D02*
D03*
X11014D02*
D03*
X11033Y17874D02*
D03*
X10226D02*
D03*
X16585Y17008D02*
D03*
X15778D02*
D03*
X16900Y25945D02*
D03*
X16093D02*
D03*
X11860Y29803D02*
D03*
X11053D02*
D03*
X30659Y47323D02*
D03*
X31467D02*
D03*
X23848Y44094D02*
D03*
X24656D02*
D03*
X26014Y44134D02*
D03*
X26821D02*
D03*
X7313Y50039D02*
D03*
X8120D02*
D03*
D20*
X10709Y23730D02*
D03*
Y24537D02*
D03*
D23*
X32807Y64476D02*
D03*
D24*
Y63476D02*
D03*
X31807Y64476D02*
D03*
Y63476D02*
D03*
X30807Y64476D02*
D03*
Y63476D02*
D03*
X29807Y64476D02*
D03*
Y63476D02*
D03*
X28807Y64476D02*
D03*
Y63476D02*
D03*
X27807Y64476D02*
D03*
Y63476D02*
D03*
X26807Y64476D02*
D03*
Y63476D02*
D03*
X25807Y64476D02*
D03*
Y63476D02*
D03*
X24807Y64476D02*
D03*
Y63476D02*
D03*
X23807Y64476D02*
D03*
Y63476D02*
D03*
X22807Y64476D02*
D03*
Y63476D02*
D03*
X21807Y64476D02*
D03*
Y63476D02*
D03*
X20807Y64476D02*
D03*
Y63476D02*
D03*
X19807Y64476D02*
D03*
Y63476D02*
D03*
X18807Y64476D02*
D03*
Y63476D02*
D03*
X17807Y64476D02*
D03*
Y63476D02*
D03*
X16807Y64476D02*
D03*
Y63476D02*
D03*
X15807Y64476D02*
D03*
Y63476D02*
D03*
X14807Y64476D02*
D03*
Y63476D02*
D03*
X13807Y64476D02*
D03*
Y63476D02*
D03*
D25*
X33425Y1535D02*
D03*
X1535Y1614D02*
D03*
X1614Y64331D02*
D03*
D26*
X28601Y50227D02*
D03*
X9301D02*
D03*
D27*
X31551Y31767D02*
D03*
X31051D02*
D03*
X31551Y51457D02*
D03*
X31051D02*
D03*
X6851Y31767D02*
D03*
X6351D02*
D03*
Y51457D02*
D03*
X6851D02*
D03*
X21201D02*
D03*
X24201D02*
D03*
X23701D02*
D03*
X23201D02*
D03*
X22701D02*
D03*
X22201D02*
D03*
X21701D02*
D03*
X20701D02*
D03*
X20201D02*
D03*
X19701D02*
D03*
X19201D02*
D03*
X18701D02*
D03*
X18201D02*
D03*
X17701D02*
D03*
X17201D02*
D03*
X16701D02*
D03*
X16201D02*
D03*
X15701D02*
D03*
X15201D02*
D03*
X14701D02*
D03*
X14201D02*
D03*
X13701D02*
D03*
D28*
X32756Y61024D02*
D03*
D29*
Y60024D02*
D03*
X31756Y61024D02*
D03*
Y60024D02*
D03*
X30756Y61024D02*
D03*
Y60024D02*
D03*
X29756Y61024D02*
D03*
Y60024D02*
D03*
X28756Y61024D02*
D03*
Y60024D02*
D03*
X27756Y61024D02*
D03*
Y60024D02*
D03*
X26756Y61024D02*
D03*
Y60024D02*
D03*
X25756Y61024D02*
D03*
Y60024D02*
D03*
X24756Y61024D02*
D03*
Y60024D02*
D03*
X23756Y61024D02*
D03*
Y60024D02*
D03*
X22756Y61024D02*
D03*
Y60024D02*
D03*
X21756Y61024D02*
D03*
Y60024D02*
D03*
X20756Y61024D02*
D03*
Y60024D02*
D03*
X19756Y61024D02*
D03*
Y60024D02*
D03*
X18756Y61024D02*
D03*
Y60024D02*
D03*
X17756Y61024D02*
D03*
Y60024D02*
D03*
X16756Y61024D02*
D03*
Y60024D02*
D03*
X15756Y61024D02*
D03*
Y60024D02*
D03*
X14756Y61024D02*
D03*
Y60024D02*
D03*
X13756Y61024D02*
D03*
Y60024D02*
D03*
D30*
X34370Y7126D02*
D03*
X34409Y10433D02*
D03*
X34370Y13583D02*
D03*
X34409Y16772D02*
D03*
Y19882D02*
D03*
Y23110D02*
D03*
Y26417D02*
D03*
X26014Y36900D02*
D03*
Y40167D02*
D03*
X33504Y54646D02*
D03*
Y39055D02*
D03*
X2638Y53071D02*
D03*
X2205Y55315D02*
D03*
X2362Y56614D02*
D03*
X2323Y60394D02*
D03*
X3740D02*
D03*
X3780Y56299D02*
D03*
X29380Y4439D02*
D03*
X29222Y7667D02*
D03*
X29390Y11240D02*
D03*
X29360Y14085D02*
D03*
X29439Y17274D02*
D03*
X29793Y20541D02*
D03*
X29656Y23848D02*
D03*
X29577Y26801D02*
D03*
X34055Y29764D02*
D03*
X24656Y46112D02*
D03*
X28110Y44134D02*
D03*
X2677Y50472D02*
D03*
X1299Y50433D02*
D03*
X4094Y63819D02*
D03*
X7323Y50079D02*
D03*
X6693Y53425D02*
D03*
X5512Y52244D02*
D03*
X4646Y57913D02*
D03*
X6535Y56772D02*
D03*
X17504D02*
D03*
X7913Y56339D02*
D03*
X14016D02*
D03*
X22175Y26821D02*
D03*
X9764Y29331D02*
D03*
X16093Y26998D02*
D03*
X22244Y20591D02*
D03*
X9843Y20512D02*
D03*
X13268Y23150D02*
D03*
X9528Y17165D02*
D03*
X9724Y9764D02*
D03*
X15778Y16230D02*
D03*
X20157Y16220D02*
D03*
X20197Y9961D02*
D03*
X28819Y22953D02*
D03*
Y27283D02*
D03*
X23848Y36309D02*
D03*
Y41250D02*
D03*
X24567Y47126D02*
D03*
X26756Y50850D02*
D03*
X28110Y23307D02*
D03*
Y28780D02*
D03*
X25197Y36063D02*
D03*
Y41102D02*
D03*
X25472Y46614D02*
D03*
X27953Y50906D02*
D03*
X16024Y10669D02*
D03*
X30039Y49921D02*
D03*
X30079Y42087D02*
D03*
X28780Y32244D02*
D03*
X26890Y24331D02*
D03*
X29331Y50079D02*
D03*
X26142Y46024D02*
D03*
X27520Y30197D02*
D03*
Y23819D02*
D03*
D31*
X14089Y24114D02*
D03*
X14589D02*
D03*
X15089D02*
D03*
X15589D02*
D03*
X16089D02*
D03*
X16589D02*
D03*
X17089D02*
D03*
X17589D02*
D03*
X18089D02*
D03*
X18589D02*
D03*
X14089Y20374D02*
D03*
X14589D02*
D03*
X15089D02*
D03*
X15589D02*
D03*
X16089D02*
D03*
X16589D02*
D03*
X17089D02*
D03*
X17589D02*
D03*
X18089D02*
D03*
X18589D02*
D03*
D32*
X28346Y48189D02*
D03*
X27972Y47323D02*
D03*
X28720D02*
D03*
D33*
X10827Y11506D02*
D03*
Y10699D02*
D03*
X13268Y21644D02*
D03*
Y22451D02*
D03*
X18346Y11939D02*
D03*
Y11132D02*
D03*
X20197Y11939D02*
D03*
Y11132D02*
D03*
X20157Y17726D02*
D03*
Y16919D02*
D03*
X23031Y26014D02*
D03*
Y26821D02*
D03*
X22244Y18455D02*
D03*
Y19262D02*
D03*
M02*
