M48
;Layer_Color=9474304
;FILE_FORMAT=2:4
INCH,LZ
;TYPE=PLATED
T1F00S00C0.0240
T2F00S00C0.0280
T3F00S00C0.0354
T4F00S00C0.0400
T5F00S00C0.0480
T6F00S00C0.1250
%
T01
X006351Y031767
X006851
X031051
X031551
Y051457
X031051
X024201
X023701
X023201
X022701
X022201
X021701
X021201
X020701
X020201
X019701
X019201
X018701
X018201
X017701
X017201
X016701
X016201
X015701
X015201
X014701
X014201
X013701
X006851
X006351
T02
X02938Y004439
X029222Y007667
X02939Y01124
X02936Y014085
X029439Y017274
X029793Y020541
X034409Y019882
Y016772
X03437Y013583
X034409Y010433
X03437Y007126
X020197Y009961
X020157Y01622
X022244Y020591
X015778Y01623
X016024Y010669
X009724Y009764
X009528Y017165
X009843Y020512
X013268Y02315
X016093Y026998
X009764Y029331
X022175Y026821
X028819Y027283
X029577Y026801
X029656Y023848
X028819Y022953
X02811Y023307
X02752Y023819
X02689Y024331
X02811Y02878
X02752Y030197
X02878Y032244
X025197Y036063
X023848Y036309
X026014Y0369
X034055Y029764
X034409Y026417
Y02311
X033504Y039055
X030079Y042087
X02811Y044134
X026142Y046024
X025472Y046614
X024656Y046112
X024567Y047126
X026756Y05085
X027953Y050906
X029331Y050079
X030039Y049921
X025197Y041102
X023848Y04125
X026014Y040167
X007323Y050079
X006693Y053425
X005512Y052244
X002638Y053071
X002677Y050472
X001299Y050433
X002205Y055315
X002362Y056614
X002323Y060394
X00374
X004646Y057913
X00378Y056299
X006535Y056772
X007913Y056339
X014016
X017504Y056772
X004094Y063819
X033504Y054646
T03
X013756Y060024
X014756
X015756
X016756
X017756
X018756
Y061024
X017756
X016756
X015756
X014756
X013756
X019756
X020756
X021756
X022756
X023756
X024756
X025756
X026756
X027756
X028756
X029756
X030756
X031756
X032756
Y060024
X031756
X030756
X029756
X028756
X027756
X026756
X025756
X024756
X023756
X022756
X021756
X020756
X019756
T04
X013807Y063476
X014807
X015807
X016807
X017807
X018807
Y064476
X017807
X016807
X015807
X014807
X013807
X019807
X020807
X021807
X022807
X023807
X024807
X025807
X026807
X027807
X028807
X029807
X030807
X031807
X032807
Y063476
X031807
X030807
X029807
X028807
X027807
X026807
X025807
X024807
X023807
X022807
X021807
X020807
X019807
T05
X028601Y050227
X009301
T06
X001535Y001614
X033425Y001535
X001614Y064331
M30
